<svg xmlns="http://www.w3.org/2000/svg" xmlns:xlink="http://www.w3.org/1999/xlink" width="1080" height="1080" viewBox="0 0 1080 1080">
<defs>
<clipPath id="clip_1">
<path transform="matrix(1,0,0,-1,0,1080)" d="M591.3794 783.8195C577.743 787.2749 563.8161 789.6444 549.7393 790.8905 480.316 797.0357 411.7419 775.6452 358.2592 730.9091 330.2674 707.4947 307.7235 679.0269 291.5144 646.3366 290.7289 644.7529 288.807 644.1018 287.2222 644.885 285.6322 645.6708 284.9811 647.5978 285.7686 649.1863 302.3711 682.6748 325.472 711.8413 354.1465 735.8264 381.8421 758.9928 413.4444 776.2207 447.9715 786.7667 481.1992 796.9158 515.8783 800.4841 550.4859 797.4023 565.2848 796.0847 579.8511 793.5772 594.0955 789.9012 593.3319 787.866 592.4344 785.8179 591.3794 783.8195ZM657.4844 314.2585C655.2207 312.9571 652.843 312.2895 650.3516 312.2566 647.8603 312.2237 645.5174 312.8318 643.3237 314.0807 641.1297 315.3297 639.3557 317.1317 638.0014 319.4872 636.647 321.8426 635.9854 324.2767 636.0163 326.7893 636.0471 329.3022 636.7034 331.6272 637.9852 333.7637 639.267 335.9004 641.0398 337.6196 643.3036 338.9213 645.5676 340.2232 647.9453 340.8902 650.4367 340.9234 652.928 340.9563 655.2558 340.3474 657.4204 339.0968 659.5846 337.8461 661.3441 336.043 662.6985 333.6877 664.0529 331.3324 664.7236 328.8957 664.7105 326.3783 664.6978 323.8603 664.056 321.5364 662.7858 319.4065 661.5156 317.2762 659.7485 315.5604 657.4844 314.2585ZM654.4077 319.6097C656.3288 320.7141 657.4983 322.2388 657.917 324.1834 658.3351 326.1277 657.9397 328.1522 656.7301 330.2561 655.507 332.3826 653.9533 333.7486 652.0691 334.3535 650.1844 334.9587 648.2815 334.7093 646.3607 333.6046 644.4167 332.4872 643.2293 330.9676 642.7976 329.0454 642.3661 327.1238 642.7684 325.0882 644.0043 322.9387 645.2271 320.8119 646.7808 319.4461 648.6653 318.8409 650.5498 318.2357 652.464 318.492 654.4077 319.6097ZM627.5276 329.6081 638.97 304.2981 632.8046 301.5108 621.3623 326.821ZM602.9243 319.1598C605.6484 320.2339 608.2418 320.6324 610.7043 320.3558 613.1667 320.0791 615.3409 319.1856 617.2265 317.6751 619.1124 316.1642 620.5586 314.1326 621.5647 311.5809 622.5613 309.0532 622.8882 306.5876 622.5457 304.1841 622.2033 301.7806 621.2205 299.6351 619.5971 297.7475 617.9737 295.8599 615.8123 294.3836 613.1129 293.3195L603.432 289.5024 593.2434 315.343ZM610.56 298.6078C612.9405 299.5461 614.5367 300.9271 615.3491 302.7501 616.1615 304.5733 616.0983 306.6749 615.1598 309.0555 614.2212 311.4357 612.8283 313.0274 610.9804 313.8299 609.133 314.6326 607.019 314.5646 604.6387 313.626L601.6569 312.4505 607.5785 297.432ZM573.5625 310.9859 577.3 294.7929C577.6736 293.1738 578.3596 292.0192 579.3582 291.3293 580.3569 290.6391 581.6271 290.4721 583.1691 290.8281 584.7111 291.1839 585.7929 291.894 586.4136 292.9575 587.0344 294.0214 587.158 295.3627 586.7844 296.9821L583.0469 313.1748 589.6395 314.6964 593.3682 298.5423C593.9257 296.1264 593.8832 293.9641 593.2406 292.0564 592.5983 290.1484 591.5072 288.57 589.9683 287.3214 588.4291 286.0727 586.5928 285.2022 584.4594 284.7101 582.3261 284.2174 580.3211 284.1948 578.4452 284.6415 576.5686 285.0883 574.9478 286.0407 573.5826 287.4988 572.2174 288.9567 571.2559 290.8942 570.6984 293.3101L566.9697 309.4642ZM563.5035 309.0957 564.1866 303.7184 556.8857 302.7906 559.7039 280.6132 552.9917 279.7603 550.1735 301.9377 542.8729 301.0099 542.1895 306.3875ZM529.9177 278.3506C527.8873 278.2993 526.0595 278.583 524.4344 279.2015 522.809 279.8201 521.4988 280.7631 520.5036 282.0311 519.5083 283.2987 518.9613 284.8419 518.8626 286.6601L526.0615 286.842C526.1933 285.8165 526.5689 285.0409 527.1891 284.5157 527.8093 283.9904 528.6073 283.7401 529.583 283.7648 530.585 283.79 531.3702 284.0409 531.9388 284.5171 532.5072 284.993 532.7813 285.6399 532.7606 286.4574 532.7433 287.1428 532.4981 287.7041 532.0253 288.1409 531.5525 288.5774 530.9762 288.932 530.2964 289.2053 529.6167 289.4783 528.6523 289.7836 527.4037 290.1217 525.5966 290.63 524.1192 291.1467 522.9709 291.672 521.8231 292.197 520.8267 292.9898 519.982 294.0503 519.1373 295.1107 518.6928 296.5113 518.6489 298.2518 518.5834 300.8358 519.4684 302.8833 521.3035 304.3945 523.139 305.9053 525.5595 306.6987 528.5659 306.7747 531.6248 306.8521 534.109 306.1826 536.0179 304.7666 537.9273 303.3502 538.9809 301.3384 539.1788 298.7311L531.8612 298.546C531.7858 299.4415 531.4382 300.1385 530.8186 300.6374 530.1992 301.136 529.4149 301.3736 528.4655 301.3495 527.648 301.3288 526.9944 301.0949 526.5043 300.6471 526.0141 300.1992 525.7797 299.5665 525.8001 298.7493 525.8228 297.8527 526.2625 297.1644 527.1191 296.6848 527.9754 296.2052 529.3077 295.6978 531.1154 295.1631 532.9239 294.6019 534.3956 294.0585 535.5303 293.5332 536.665 293.0077 537.6546 292.2279 538.4988 291.1938 539.3426 290.1597 539.786 288.8118 539.8279 287.1505 539.8679 285.5682 539.502 284.1211 538.7304 282.8086 537.9588 281.4962 536.8178 280.438 535.3078 279.6347 533.7975 278.8313 532.0009 278.4033 529.9177 278.3506ZM489.098 287.0138 497.823 285.4556 496.9049 280.3141 481.519 283.0615 486.4022 310.4056 493.0628 309.2162ZM468.3506 290.912 458.3784 293.7438 455.4394 289.4783 448.6263 291.4129 465.8817 315.3875 473.4181 313.2473 475.4985 283.782 468.6092 285.7382ZM468.1026 296.4118 467.5691 307.1344 461.5177 298.2818ZM440.6423 324.4008C443.3664 323.3265 445.5337 321.8482 447.1449 319.9654 448.7559 318.0827 449.7352 315.9456 450.0825 313.5543 450.4297 311.1633 450.1003 308.6915 449.094 306.1395 448.0977 303.6118 446.6537 301.5867 444.7633 300.0637 442.8726 298.5409 440.6899 297.6435 438.2152 297.3716 435.7403 297.0998 433.1531 297.4961 430.4537 298.5602L420.7728 302.3773 430.9614 328.2177ZM432.197 304.1677C434.5773 303.2291 436.6865 303.1489 438.5245 303.927 440.3625 304.7054 441.7506 306.2843 442.6892 308.6649 443.6277 311.0451 443.6957 313.1592 442.893 315.0068 442.0902 316.8544 440.4988 318.2477 438.1183 319.1859L435.1368 320.3617 429.2155 305.3432ZM426.6266 331.1813 413.9643 306.4589 407.9424 309.5433 420.6044 334.2657ZM395.4368 317.0923 396.2324 329.0372 394.8667 329.9128 389.2076 321.0854 383.5117 324.737 398.5027 348.1209 408.0626 341.9921C409.9056 340.8106 411.2705 339.4814 412.1566 338.0046 413.043 336.5277 413.4487 335.0222 413.3738 333.4878 413.2987 331.9534 412.8199 330.4981 411.9372 329.1211 410.9409 327.5666 409.6125 326.4599 407.9523 325.8009 406.292 325.1418 404.4433 325.1049 402.406 325.6906L401.8657 312.9707ZM397.4505 333.9434 400.9813 331.6796C402.0253 331.0104 402.9715 330.764 403.8211 330.9403 404.6703 331.1167 405.3937 331.6711 405.9918 332.6037 406.5613 333.4921 406.7487 334.3586 406.5545 335.2042 406.3601 336.0492 405.741 336.8064 404.6973 337.4756L401.1664 339.7394ZM383.0919 342.9363C384.0834 341.6236 384.5381 340.1739 384.4553 338.5879 384.3729 337.0017 383.8048 335.6005 382.7511 334.3844 381.2312 332.6298 379.4136 331.77 377.2979 331.8058 375.1821 331.8409 373.0277 332.8087 370.8346 334.7084L361.0551 343.1798 379.2413 364.1746 388.692 355.9884C390.8254 354.1402 392.072 352.2053 392.432 350.1833 392.792 348.1617 392.2466 346.3132 390.7959 344.6382 389.7252 343.4023 388.5117 342.6562 387.1556 342.4 385.7995 342.1437 384.4449 342.3226 383.0919 342.9363ZM376.998 351.2509 380.3477 348.3496C381.185 347.6242 381.9878 347.2515 382.756 347.2319 383.5242 347.2121 384.2189 347.561 384.8409 348.2787 385.4625 348.9968 385.7131 349.7391 385.5929 350.5065 385.4721 351.2741 384.9934 352.0205 384.156 352.7459L380.8063 355.6474ZM373.5125 339.6127C374.3697 338.8703 375.2011 338.4901 376.0067 338.4731 376.8117 338.4561 377.534 338.8164 378.1732 339.5543 378.8121 340.2918 379.0687 341.0816 378.9428 341.9235 378.8172 342.7654 378.3254 343.5574 377.4682 344.3003L373.7597 347.5125 369.7441 342.877ZM337.2928 367.5319C335.9628 369.0672 335.0205 370.6588 334.4655 372.3066 333.9102 373.9547 333.8059 375.5656 334.1526 377.1397 334.4992 378.7138 335.3431 380.1166 336.6842 381.348L341.3991 375.9052C340.6907 375.1517 340.3307 374.3688 340.3193 373.5561 340.3077 372.7434 340.6215 371.9682 341.2604 371.2306 341.9169 370.4729 342.6094 370.0259 343.3382 369.8895 344.067 369.7532 344.7405 369.9524 345.3588 370.4879 345.8772 370.9369 346.1547 371.4829 346.1913 372.1252 346.2279 372.7678 346.1357 373.4385 345.9149 374.1367 345.6938 374.8351 345.3168 375.7737 344.7845 376.9526 344.0288 378.671 343.4888 380.1404 343.1648 381.3605 342.841 382.5805 342.8201 383.8535 343.1018 385.1799 343.3842 386.5059 344.183 387.739 345.4991 388.8788 347.453 390.5714 349.5963 391.189 351.9292 390.7321 354.2621 390.2751 356.4128 388.91 358.3817 386.6369 360.3852 384.3241 361.4468 381.9807 361.5664 379.6064 361.686 377.2324 360.8022 375.1404 358.9143 373.3308L354.1218 378.864C354.7653 379.491 355.0827 380.202 355.0742 380.9976 355.0657 381.793 354.7505 382.5493 354.1289 383.2671 353.5934 383.8853 352.9973 384.2413 352.3399 384.3351 351.6831 384.4293 351.0454 384.2082 350.4274 383.673 349.7494 383.0856 349.4974 382.3089 349.6714 381.3429 349.8452 380.3769 350.2998 379.0256 351.0357 377.2899 351.7515 375.537 352.2671 374.0553 352.5823 372.8455 352.8978 371.6351 352.9244 370.3757 352.6622 369.0666 352.4 367.7579 351.6409 366.5594 350.3846 365.4711 349.1884 364.4348 347.8385 363.7979 346.3347 363.5597 344.831 363.3214 343.2889 363.5303 341.7092 364.1859 340.1291 364.8413 338.6571 365.9567 337.2928 367.5319ZM320.8813 389.3888C319.7849 391.0989 319.0802 392.809 318.767 394.5195 318.4537 396.2299 318.5813 397.8394 319.1499 399.3474 319.7186 400.8555 320.7546 402.1231 322.2584 403.1498L326.145 397.0874C325.3357 396.4433 324.8674 395.7199 324.7396 394.9174 324.6117 394.1147 324.8113 393.3026 325.338 392.4811 325.8788 391.6372 326.5004 391.0955 327.2023 390.856 327.9039 390.6164 328.5992 390.7176 329.2877 391.159 329.8649 391.5289 330.2178 392.0295 330.3462 392.6602 330.4743 393.2909 330.4791 393.9676 330.3607 394.6904 330.2419 395.4132 330.0035 396.3963 329.6452 397.6393 329.1435 399.4483 328.8197 400.9796 328.6738 402.2337 328.5281 403.4874 328.6896 404.7506 329.1588 406.0225 329.6282 407.2946 330.5954 408.4004 332.0609 409.3401 334.2373 410.7353 336.4469 411.0398 338.6906 410.2532 340.9336 409.4663 342.8666 407.8074 344.4897 405.2758 346.1411 402.6997 346.856 400.2284 346.6344 397.8618 346.4124 395.4949 345.238 393.5511 343.1109 392.0306L339.16 398.1932C339.8868 398.7215 340.3026 399.3797 340.4083 400.1683 340.5141 400.9567 340.3106 401.7506 339.798 402.55 339.3567 403.2386 338.8175 403.6762 338.1806 403.8633 337.5439 404.0504 336.8812 403.9231 336.1927 403.4818 335.4378 402.9979 335.0769 402.2651 335.1107 401.2841 335.1441 400.303 335.4009 398.9007 335.8803 397.0774 336.3375 395.24 336.6357 393.7 336.7743 392.4573 336.9129 391.2146 336.759 389.9639 336.312 388.7062 335.865 387.4482 334.942 386.371 333.5431 385.4741 332.2106 384.6197 330.7833 384.1826 329.2608 384.1622 327.7386 384.1418 326.2425 384.5696 324.7727 385.4446 323.303 386.3197 322.0058 387.6344 320.8813 389.3888ZM335.8148 418.6596 311.7351 404.814 308.3624 410.6798 332.4421 424.525ZM306.5474 426.4047 310.1984 418.3285 305.4393 416.177 299.0007 430.4183 324.311 441.8609 327.0983 435.6955ZM307.9746 446.3515C308.1654 444.7174 307.8238 443.2374 306.9499 441.9113 306.076 440.585 304.8766 439.664 303.3527 439.1484 301.1536 438.4043 299.1509 438.5829 297.3441 439.6844 295.5373 440.7857 294.169 442.7104 293.239 445.4592L289.0919 457.7151 315.4031 466.6178 319.4104 454.7741C320.3152 452.1005 320.4111 449.8007 319.6981 447.8749 318.9855 445.9487 317.5795 444.6306 315.4805 443.9205 313.9313 443.3964 312.5072 443.3672 311.2081 443.8324 309.9087 444.2978 308.831 445.1374 307.9746 446.3515ZM306.9272 456.607 308.3477 452.4094C308.7028 451.3598 309.2066 450.6321 309.8591 450.2265 310.5113 449.8206 311.2875 449.7701 312.1872 450.0743 313.0866 450.3787 313.6785 450.8923 313.9631 451.6152 314.2474 452.338 314.2123 453.2241 313.8574 454.2735L312.4369 458.4713ZM298.0307 448.3335C298.3944 447.2592 298.9191 446.5108 299.605 446.0885 300.291 445.6661 301.0961 445.6114 302.0207 445.9243 302.9451 446.237 303.5662 446.7883 303.8837 447.5781 304.2014 448.3678 304.1782 449.2998 303.8148 450.3745L302.2421 455.0219 296.4328 453.056ZM596.448 797.6316C581.6302 801.4535 566.477 804.062 551.1317 805.4283 523.2271 807.9131 495.1015 806.2603 467.7058 800.3792 441.0437 794.6555 415.349 784.986 391.5397 771.6895 342.985 744.5741 304.1841 703.5384 279.2846 653.8538 278.1425 651.5745 275.366 650.6549 273.0872 651.7973 270.8079 652.9402 269.8883 655.7134 271.0307 657.993 296.4813 708.7788 336.128 750.4189 385.5005 778.5105 409.2174 792.0048 434.7315 802.0576 461.3014 808.2845 490.9935 815.243 521.5842 817.3267 551.9546 814.6225 567.5749 813.2318 582.9885 810.5876 598.0606 806.7189 597.7794 804.3024 597.2919 801.1369 596.448 797.6316ZM751.9275 342.2551C754.1408 344.2677 757.662 346.2934 760.6672 347.9658 771.0191 353.77 779.4595 356.0179 788.0187 355.2817 791.481 354.9821 794.6657 354.5773 797.7427 354.1989 808.5387 352.83 817.4614 351.7041 828.7384 356.3045 823.6831 348.6376 813.4089 336.1561 794.7377 325.2283L793.6855 324.6752C785.9835 320.5471 781.9849 319.2375 771.7482 319.8353 764.6176 320.2478 759.5229 323.1286 754.1189 326.1796 751.4184 327.6924 748.6373 329.273 745.5362 330.5625 743.6818 331.3335 739.6033 331.4716 736.6856 331.4622 737.3514 332.1734 738.0116 332.8886 738.6653 333.608 742.415 335.3981 747.5465 338.2741 751.9275 342.2551ZM683.7644 299.054 683.8044 299.0313C679.9354 296.3925 676.0001 293.8504 672.0026 291.4075 671.8184 291.299 671.6463 291.1776 671.4828 291.0433 617.8564 258.4658 556.4477 245.2048 494.1343 252.5865 380.4114 266.059 287.6326 346.1817 257.7583 456.736 257.0856 459.2259 254.5007 460.7062 252.0111 460.0414 249.5092 459.3733 248.0253 456.7825 248.7002 454.2849 263.5577 399.297 294.1112 350.3812 336.8945 312.7774 380.8644 274.1306 434.899 250.1521 493.0302 243.2656 514.4377 240.7294 536.1134 240.5565 557.5527 242.8291 568.4655 243.9856 579.3086 245.7717 590.0162 248.1738 620.5371 255.0214 649.6228 266.7858 676.3535 283.0343 676.5435 283.1165 676.7277 283.2126 676.9046 283.3203 679.5145 284.908 682.0943 286.5444 684.6497 288.2188 684.6557 288.2228 684.661 288.2262 684.6673 288.2305L691.2009 292.5938C691.2167 292.6046 691.2303 292.6137 691.2459 292.6247 691.7233 292.9592 692.1992 293.2954 692.6749 293.633 695.3927 291.8503 698.1111 289.9151 700.1926 288.0986 705.9302 283.0955 723.3639 263.4797 759.702 277.9245 780.0792 286.0149 796.7854 299.5288 796.7854 299.5288 776.7751 295.4741 771.514 306.6471 750.6397 310.625 729.7634 314.6023 712.6937 300.5079 704.558 298.5928 702.7537 298.1693 700.9033 298.1381 699.1517 298.3601 705.0668 302.796 710.8376 307.4496 716.4261 312.2544 722.6079 317.5693 728.6941 323.1669 734.3983 329.0607 737.8466 328.9864 740.9883 328.2874 743.2869 327.327 746.1167 326.1467 749.0974 323.2823 751.6667 321.8389 757.326 318.6451 763.1824 315.3424 771.4638 314.8571 783.0992 314.1799 788.0513 316.0035 796.045 320.2781L797.082 320.836C826.8934 338.3836 836.8087 360.2322 837.2109 361.1894L840.0852 368.0359 833.6526 364.3064C820.0616 356.4026 810.955 357.5494 798.3692 359.1437 795.2426 359.5371 792.0111 359.9453 788.4456 360.2475 778.8254 361.0726 769.5023 358.6283 758.2348 352.3246 754.8046 350.3974 752.2577 348.23 749.7978 346.1323 749.0361 345.4841 747.9992 344.59 746.8373 343.6152 751.0289 348.7096 755.1366 353.8831 759.115 359.1454 762.8136 364.0377 766.4613 369.0541 769.7988 374.2138 770.1412 374.4564 770.4794 374.6789 770.8107 374.8768 776.3377 378.184 782.1714 376.6768 794.1626 386.3968 802.6129 393.2546 811.0979 409.053 811.3564 423.6389 811.9655 456.3643 794.6274 483.2396 794.6274 483.2396 794.6274 483.2396 795.1212 477.0873 790.7803 467.1235 785.6512 455.3405 781.7233 452.9537 769.5108 437.2132 764.4013 430.6292 758.8332 422.1935 757.3391 409.595 756.1919 399.8968 760.9181 386.0481 759.0203 376.835 758.8199 375.8559 758.5455 374.8431 758.2297 373.8385 751.5454 363.9146 744.2218 354.4248 736.3148 345.4432L730.9568 339.5211C727.2624 335.5571 723.4586 331.6946 719.5374 327.9543L719.3123 327.7466C720.0102 332.4586 721.7053 338.2526 725.6066 343.5032 732.8823 353.3026 739.3286 361.8935 734.7016 384.7717 730.4797 405.6245 736.9963 420.2804 736.9963 420.2804 736.9963 420.2804 721.6668 409.5989 711.3223 398.1084 702.3696 388.1682 695.0991 372.7162 696.4671 360.3061 697.8229 347.8946 702.936 341.4521 709.0495 333.2256 711.517 329.9 712.5678 325.6217 712.9037 321.8318L712.4797 321.4403C703.446 313.3834 693.8943 305.9181 683.8997 299.0959ZM670.7222 299.1779C644.7866 282.9087 616.25 271.1616 586.3754 264.4642 551.9602 256.7483 516.2 255.8659 481.4337 261.777 415.129 273.0498 355.6939 308.3817 314.0629 361.2025 290.8616 390.6397 274.1584 424.008 264.6774 460.2645 264.2227 462.0033 265.2749 463.8016 267.0134 464.2571 268.7528 464.7129 270.5519 463.661 271.0069 461.9211 280.2597 426.5365 296.5581 393.982 319.2015 365.2523 360.1052 313.3545 418.3495 278.6856 483.5523 267.8221 514.544 262.6583 546.4239 263.0699 577.2654 269.0768 609.2385 275.3045 639.6823 287.4246 667.2696 304.734 668.7921 305.6896 670.8197 305.2264 671.777 303.7054 672.6668 302.2914 672.3445 300.4282 671.034 299.3956 670.9331 299.3162 670.8308 299.2436 670.7222 299.1779ZM621.9473 702.2886 613.4426 708.1849C610.6039 710.1527 607.6491 712.2098 604.2691 713.1061 600.3437 714.147 596.0789 713.5353 592.1314 712.957 591.0999 712.806 589.3846 712.5086 588.9444 711.4195 588.6938 710.799 588.9317 710.0586 589.3081 709.5421 589.7846 708.889 590.5315 708.4134 591.2294 708.029 593.7644 706.6338 596.5934 705.8886 599.3974 705.2522 606.7987 703.5724 614.3627 702.5746 621.9473 702.2886ZM617.4556 719.6771C617.1891 720.3152 616.8966 720.9414 616.5709 721.5503 614.975 724.532 612.2991 727.3154 608.8402 727.9248 608.1968 728.0382 607.5417 728.0736 606.8906 728.1113 605.8502 728.1714 604.8196 728.238 603.8161 728.5431 603.5204 728.6329 603.2322 728.7432 602.9433 728.852 602.4229 729.0488 601.7984 729.2948 601.2346 729.2659 600.4789 729.2271 599.7183 728.6695 599.1355 728.221 596.772 726.4012 594.5811 724.2775 593.0212 721.715 591.7637 719.6488 590.9029 717.2291 590.7977 714.7947L595.364 717.1299C597.2856 718.1127 599.2486 719.0906 601.4517 719.1726 603.3498 719.2431 605.1773 718.6323 606.8143 717.7071 608.3685 716.8286 609.7334 715.6837 611.0921 714.5359 611.439 714.2434 611.481 713.721 611.1896 713.3743 610.8965 713.0256 610.3763 712.982 610.0279 713.274 608.7509 714.3446 607.4518 715.4433 605.9974 716.2679 604.6364 717.0398 603.0921 717.5815 601.5098 717.522 599.6186 717.4511 597.7692 716.5032 596.1169 715.6573L594.8252 714.9957C598.1125 715.398 601.473 715.5573 604.6968 714.7009 607.6517 713.9163 610.2746 712.319 612.7974 710.6255 612.6401 710.8157 612.4844 711.0074 612.3305 711.2001 612.0459 711.5564 612.112 712.0791 612.4663 712.3623 612.8226 712.6472 613.3394 712.5914 613.624 712.2342 615.9512 709.3094 618.6986 706.6811 621.7509 704.5135 620.8628 706.0745 620.0906 707.701 619.4452 709.3777 618.9656 710.6233 618.5554 711.894 618.1444 713.1637 617.6713 714.6258 617.2047 716.095 616.6193 717.5166 615.5926 720.0099 614.1458 722.4735 611.9223 724.0788 609.8692 725.5607 606.979 726.2175 604.6291 725.0431 604.2217 724.8393 603.7285 725.0068 603.5221 725.4111 603.3129 725.8201 603.4802 726.3164 603.8895 726.5217 606.7826 727.9722 610.3426 727.257 612.8872 725.4201 614.9151 723.956 616.3651 721.9001 617.4556 719.6771ZM651.1065 719.1995C651.1164 719.2142 651.1272 719.2287 651.1391 719.244 651.2522 719.3846 651.1351 719.6987 651.0419 719.8288 650.8012 720.1647 650.3426 720.4187 649.9879 720.6177 646.818 722.3961 643.5196 723.9379 640.2277 725.4746 639.9218 725.6171 639.4706 725.8402 639.1324 725.815 639.0556 725.809 638.905 725.7495 638.8608 725.6792 638.9002 725.5723 639.1494 725.3507 639.2307 725.2801 642.505 722.4466 646.2666 720.2129 649.9976 718.0398 650.0149 718.0622 650.0324 718.0843 650.0503 718.1065 650.3706 718.5073 650.6938 718.8908 651.1065 719.1995ZM657.8413 715.5323C657.4975 715.7392 657.1559 715.9501 656.8146 716.161 655.9571 716.6906 655.0971 717.226 654.1971 717.6804 653.7186 717.9222 652.9881 718.2488 652.4507 718.0707 652.0156 717.9267 651.6227 717.4179 651.3429 717.0678 651.2839 716.9967 651.1076 716.7773 651.0753 716.6701 651.1414 716.5794 651.3831 716.4303 651.4673 716.3793 652.337 715.8532 653.2044 715.3243 654.0687 714.7894 654.8179 714.9827 655.5753 715.1394 656.3364 715.2786 656.837 715.3699 657.339 715.4515 657.8413 715.5323ZM666.9564 717.5511C665.9994 717.5157 665.0388 717.5543 664.0761 717.696 663.8562 717.7283 663.6379 717.7689 663.4185 717.8054 662.8448 717.9007 662.241 718.0129 661.6576 717.9814 661.1139 717.952 660.4129 717.7348 660.1297 717.2201 660.0197 717.029 660.1397 716.5641 660.2196 716.3762 660.2703 716.2571 660.3701 716.0686 660.4835 715.9635 661.6531 716.1684 662.8232 716.4079 663.9576 716.7614 664.1476 716.8204 664.3366 716.8822 664.526 716.9437 665.331 717.2053 666.131 717.4633 666.9564 717.5511ZM672.3689 707.3033 711.6486 681.8196 707.7866 691.7734C706.6239 694.7702 705.4135 697.9167 703.226 700.3324 702.2979 701.3571 701.2035 702.2378 700.13 703.1041 699.0316 703.9908 697.9343 704.882 696.9702 705.9175 695.4177 707.5854 694.264 709.5844 693.1253 711.5443 691.5725 714.2176 689.9321 717.1418 687.1445 718.7023 683.826 720.5601 679.6522 720.0235 676.1137 719.2287 675.4895 719.0884 674.8671 718.9396 674.2449 718.791 672.0466 718.2658 669.8115 717.7354 667.5557 717.5823 667.7875 717.5815 668.0217 717.5645 668.2589 717.5279 668.2762 717.5254 668.2932 717.5222 668.31 717.5194 670.6108 717.137 672.2277 714.954 672.6572 712.777 673.0245 710.9141 672.7504 709.1274 672.3689 707.3033ZM675.5618 703.2586C675.6466 703.1716 675.7311 703.0848 675.8161 702.9984 679.6154 699.1299 683.9014 695.7462 688.244 692.5139 699.2028 684.3574 710.7245 676.9791 722.226 669.621L733.1179 662.6526C733.7614 662.241 735.3958 661.3353 736.0764 662.0573 736.4611 662.4655 736.3086 663.2076 736.0404 663.639 735.6314 664.2975 734.8572 664.7924 734.2166 665.208ZM608.3997 749.0696C607.9331 748.3414 607.5193 747.5757 607.142 746.803 605.4231 743.2835 604.2892 739.3153 604.7861 735.3714 604.8244 735.0695 604.9012 734.5338 605.1492 734.3388 605.1708 734.3218 605.1943 734.307 605.2195 734.2943 604.8757 737.3381 605.4585 740.4908 606.8667 743.2075 607.0076 743.4731 607.3393 743.5786 607.6052 743.438 607.8711 743.2974 607.9776 742.9689 607.837 742.7032 606.515 740.1611 605.9767 737.2108 606.312 734.3677 607.811 734.9006 608.7991 736.4659 609.141 737.9572 609.5503 739.745 609.2719 741.6672 608.961 743.4507L608.8762 743.9363C608.58 745.6351 608.2877 747.3427 608.3997 749.0696ZM615.8203 740.3978C616.0156 740.7238 616.2945 740.9852 616.6797 741.0827 617.1718 741.2071 617.6778 741.02 618.0239 740.6603 618.2456 740.4301 618.3754 740.1679 618.4928 739.8754 618.7394 739.2606 618.9471 738.6321 619.151 738.0026 619.3205 737.4784 619.4883 736.9526 619.6861 736.4384 620.0697 735.44 620.5779 734.4218 621.3677 733.6803 621.6775 733.3894 622.0882 733.0921 622.5265 733.0581 623.0007 733.0215 623.4627 733.3186 623.7283 733.6945 624.0586 734.1616 624.1609 734.7668 624.1195 735.3281 624.0708 735.9849 623.8355 736.6343 623.5696 737.2312 622.6826 739.2234 621.2384 740.9608 619.5385 742.3138 619.0401 742.71 618.3836 743.161 617.7421 743.2676 617.5715 743.296 617.3952 743.3002 617.2296 743.2767 616.6667 743.1843 616.1786 742.7322 615.9478 742.2239 615.6896 741.6556 615.6822 740.9931 615.8203 740.3978ZM597.8526 663.8462C602.8622 659.6008 606.797 654.12 609.1821 647.9935 611.6151 641.7442 612.4099 634.998 613.1812 628.3834 614.0103 621.2761 614.8573 613.8921 617.8782 607.326 618.0698 606.9093 617.8873 606.4203 617.4703 606.2298 617.3209 606.1618 617.1562 606.138 616.9941 606.1649L616.9895 606.1657C616.7203 606.2105 616.4895 606.3837 616.3747 606.6329 613.2651 613.3918 612.3872 620.8829 611.5346 628.1929 610.782 634.6446 610.0177 641.3043 607.6451 647.3954 604.6849 654.9951 599.2322 661.5527 592.2967 665.8441 591.9721 666.0448 591.8284 666.4405 591.9457 666.8016 592.0583 667.23 592.4894 667.5024 592.9251 667.4074 599.0482 666.072 604.26 662.0525 608.2262 657.3356 611.6749 653.2336 614.3352 648.5468 616.9714 643.9037 617.3345 643.2642 617.6957 642.6235 618.0605 641.9849 621.0079 636.8264 624.1467 631.6744 628.5146 627.5764 628.8474 627.2643 628.8695 626.7421 628.554 626.4096 628.3868 626.233 628.1515 626.1358 627.908 626.1486 627.7122 626.1591 627.5225 626.2415 627.3893 626.3745 622.8865 630.599 619.6669 635.8456 616.6273 641.1623 616.261 641.8029 615.8979 642.4458 615.5337 643.0881 612.9541 647.6323 610.3366 652.2571 606.9634 656.2718 604.4394 659.2757 601.3616 662.0094 597.8526 663.8462ZM625.3651 700.5682C625.3172 700.5606 625.2684 700.5574 625.2199 700.558 618.8391 700.6241 612.4623 701.1862 606.1677 702.2327 606.1504 702.2358 606.1337 702.2401 606.1178 702.2458 603.7449 702.6415 601.3831 703.1066 599.0372 703.6387 596.067 704.3125 593.1198 705.1031 590.4343 706.5794 589.5037 707.091 588.604 707.6999 587.9713 708.5701 587.2572 709.5523 586.9502 710.879 587.4123 712.0344 587.7451 712.8666 588.3642 713.4372 589.1417 713.8301 589.0317 716.8893 590.0343 719.9802 591.6118 722.5744 593.2811 725.3189 595.5942 727.5852 598.1275 729.5326 599.0213 730.22 599.982 730.8519 601.1447 730.9145 601.9968 730.9604 602.7454 730.6917 603.5275 730.3963 603.7812 730.3005 604.0361 730.1996 604.296 730.1217 605.1634 729.862 606.0937 729.8133 606.9929 729.7597 607.7061 729.7172 608.4204 729.6687 609.1251 729.546 613.1041 728.8537 616.1905 725.7691 618.0318 722.3247 619.4789 719.6182 620.2877 716.6446 621.0921 713.7006 621.2786 713.0174 621.4683 712.3351 621.6605 711.6534 621.7444 711.3555 621.8294 711.0578 621.9133 710.7596 622.7742 707.7025 623.6977 704.325 625.9289 701.9606 626.2401 701.6309 626.2271 701.1074 625.8983 700.795 625.7531 700.6572 625.5643 700.5767 625.3651 700.5682ZM617.0618 738.9972C616.9243 738.5139 616.5235 738.157 616.0178 738.0831 615.4699 738.0031 614.9418 738.2741 614.6833 738.7628 614.4982 739.112 614.3562 739.4822 614.2547 739.8643 613.9896 740.8616 614.0117 741.9572 614.4429 742.9056 614.9064 743.9253 615.8503 744.73 616.9711 744.9049 618.3136 745.1144 619.5546 744.4157 620.568 743.6109 622.4808 742.0915 624.0827 740.1407 625.0844 737.905 625.4345 737.1238 625.7083 736.304 625.7696 735.4451 625.8365 734.5046 625.6372 733.5221 625.0861 732.7437 624.486 731.895 623.4559 731.3315 622.3992 731.4072 622.3173 731.4146 622.2359 731.4282 622.1548 731.4415 621.4153 731.5645 620.7721 731.9718 620.2344 732.479 619.2556 733.4016 618.6271 734.6055 618.1486 735.8474 617.9397 736.3891 617.7574 736.9407 617.5786 737.4934 617.4156 737.9972 617.2492 738.5014 617.0618 738.9972ZM619.1901 729.7707C618.9437 730.0145 618.7034 730.2643 618.4675 730.5185 618.1569 730.8536 618.179 731.3797 618.5154 731.6884 618.537 731.7082 618.5599 731.7272 618.5835 731.7448 618.6087 731.7683 618.6353 731.7899 618.6631 731.8106 619.0347 732.083 619.5523 732.0002 619.8216 731.6269 619.9957 731.3854 620.1816 731.1523 620.3758 730.927 621.0286 730.2793 621.743 729.6701 622.5381 729.2032 623.5362 728.6173 624.6986 728.2344 625.8671 728.3333 626.9168 728.4223 628.0084 728.9546 628.5654 729.8773 629.3038 731.0993 629.0447 732.7409 628.6805 734.0397 628.0911 736.1402 627.1251 738.095 625.8231 739.8448 625.5507 740.2107 625.6256 740.7281 625.9901 741.0019 626.3589 741.2786 626.8742 741.2031 627.1489 740.8332 628.5708 738.919 629.6281 736.7797 630.2716 734.4831 630.771 732.7012 630.9808 730.6792 629.9807 729.0241 629.4529 728.1505 628.6255 727.4937 627.6892 727.0977 628.8667 726.9934 630.0646 727.1152 631.1614 727.5736 632.5971 728.1737 633.848 729.4252 634.1695 730.9828 634.2616 731.4296 634.7007 731.7193 635.1474 731.6246 635.5933 731.5299 635.8813 731.0954 635.7881 730.6481 635.3521 728.5586 633.7383 726.8576 631.7994 726.0466 630.1791 725.3688 628.4061 725.2767 626.688 725.5624L626.6823 725.5633C626.4051 725.6095 626.1279 725.6628 625.8543 725.7283 623.2961 726.3434 620.9246 727.7941 619.1901 729.7707ZM661.3594 747.5071C659.958 747.5224 658.5596 747.9567 657.4113 748.766 655.799 749.8964 654.7079 751.7384 654.4879 753.6974 653.6781 752.2469 653.7886 750.3698 654.6163 748.931 655.4475 747.4861 656.9226 746.4745 658.527 746.0365 659.2119 745.8494 659.9183 745.7613 660.6278 745.7559 660.3525 745.3426 660.1431 744.8871 660.0175 744.4069 660.3452 744.9701 660.8205 745.4409 661.3767 745.78 661.8455 745.8134 662.3133 745.88 662.7742 745.9756 661.7993 745.2312 661.0235 744.2266 660.564 743.0893 661.6298 744.4069 663.1863 745.3261 664.8542 745.6323 663.3071 744.7008 662.0871 743.2271 661.4668 741.5308 662.5894 743.2509 664.2524 744.6186 666.1664 745.3766 665.1935 744.0015 664.2198 742.621 663.245 741.2406 664.2391 742.6066 665.5762 743.7234 667.1015 744.4553 665.8376 743.4658 664.8693 742.1168 664.3298 740.6104 665.5728 741.5765 666.815 742.5482 668.058 743.5145 667.1336 742.1417 666.5905 740.5129 666.5034 738.8614 667.0851 740.3074 668.0194 741.6088 669.2114 742.621 668.5138 741.4194 668.0305 740.0965 667.7878 738.7282 668.2629 740.1061 669.0322 741.3868 670.0243 742.4538 669.4631 740.3726 669.7925 738.0629 670.9226 736.2255 670.1647 737.9529 670.3784 740.0704 671.4641 741.6094 671.3926 739.5055 671.9652 737.375 673.0758 735.5835 672.1364 737.4427 672.1869 739.7697 673.2054 741.5872 673.035 738.686 673.9415 735.734 675.7098 733.4263 674.2559 735.7569 673.6776 738.6219 674.1224 741.3333 674.5791 738.5417 675.593 735.8397 677.0891 733.4379 675.9269 735.5648 675.4544 738.0641 675.7517 740.4729 676.3039 737.8319 677.3777 735.302 678.8982 733.0782 677.9013 735.006 677.4129 737.1867 677.4888 739.3538 678.217 736.6782 679.5964 734.1834 681.474 732.1411 680.0457 734.1783 679.2766 736.6734 679.3149 739.1574 680.2095 736.6467 681.5426 734.2937 683.2242 732.2304 682.1144 734.22 681.3414 736.3998 680.955 738.6491 681.9659 736.162 683.5564 733.9054 685.5676 732.1192 683.9461 733.8671 682.8936 736.1359 682.6232 738.5054 683.4555 736.3587 685.0845 734.5295 687.1306 733.466 685.8768 734.8796 685.0301 736.6484 684.714 738.5168 686.1124 736.2975 688.4929 734.7019 691.1181 733.9975 688.7239 734.5454 686.6569 736.3511 685.7858 738.6491 687.8945 736.3545 691.0863 735.0953 694.1948 735.3337 691.9149 735.3751 689.6792 736.5557 688.3509 738.4209 689.6183 737.2834 691.3525 736.7916 693.0544 736.723 694.7518 736.6547 696.4384 736.9741 698.1041 737.2973 695.446 736.9628 692.6766 737.5728 690.3995 738.9853 693.5094 738.072 696.9478 738.3305 699.8902 739.694 697.0167 738.7101 693.8297 738.6775 690.9369 739.6084 693.9842 739.1551 697.2075 738.9247 700.0347 740.147 701.7557 740.8945 703.2078 742.1258 704.7334 743.2163 706.2548 744.313 707.9411 745.3074 709.814 745.4568 708.8017 745.941 707.5962 745.8415 706.5332 745.4716 705.4764 745.1067 704.524 744.4993 703.5401 743.9613 700.6065 742.36 697.3413 741.3712 694.0165 741.0886 696.1022 741.4274 698.0902 742.3982 699.6461 743.8323 697.1411 742.1329 694.0806 741.2817 691.0648 741.4401 693.8206 741.748 696.4345 743.1985 698.1562 745.3704 695.425 743.5378 692.3588 742.1998 689.1582 741.4413 691.5776 742.7531 693.6684 744.6654 695.1849 746.9572 692.4146 743.9848 688.7639 741.839 684.8155 740.8672 688.936 743.2617 691.8489 747.1851 693.0967 751.5998 691.1538 747.5794 687.8795 744.2192 683.9118 742.1638 686.0679 744.0168 687.882 746.2647 689.2347 748.7606 687.5277 746.8058 685.4281 745.1946 683.1009 744.05 686.6348 746.14 689.322 749.6084 690.4644 753.5472 688.2588 749.6889 685.5086 745.8401 681.4463 744.0197 684.3022 746.1853 686.2819 749.4605 686.8791 752.9871 686.4049 751.036 685.1937 749.3255 683.7228 747.9524 682.2573 746.5791 680.5372 745.5098 678.8157 744.4678 680.2637 745.7321 681.7167 747.0009 682.9095 748.5055 684.1077 750.0093 685.0437 751.7716 685.2903 753.6745 683.6162 749.8556 680.3048 746.7857 676.3725 745.3987 679.487 747.4411 681.7277 750.7695 682.4469 754.4203 681.8295 752.6699 680.6421 751.1644 679.2576 749.9268 677.8743 748.6894 676.2954 747.6987 674.7267 746.7063 677.3712 748.2804 679.2985 751.0127 679.8923 754.0311 678.4138 750.9348 675.7061 748.4448 672.499 747.2214 675.0629 748.8573 676.7249 751.8263 676.7702 754.8718 676.0468 751.7781 673.952 749.0361 671.1613 747.5244 673.3749 749.1059 674.627 751.9397 674.316 754.6368 673.8026 751.873 672.194 749.3179 669.9158 747.6616 671.773 749.4574 672.5273 752.3206 671.7875 754.795 671.5488 752.3337 670.5388 749.9574 668.9254 748.0834 670.3277 750.1748 670.6494 752.9434 669.7658 755.3027 669.5796 752.9233 668.929 750.5838 667.8558 748.4485 668.1277 750.5725 668.3964 752.6971 668.6683 754.8208 667.5489 752.8859 667.0154 750.6128 667.1597 748.3825 666.2772 750.361 666.2996 752.7135 667.2042 754.6785 665.7877 752.9539 665.1269 750.6269 665.4229 748.4139 664.541 750.4781 664.4639 752.8793 665.2106 754.994 663.8488 753.2762 663.3621 750.8937 663.9486 748.7824L663.954 748.7867C664.5464 748.4204 665.1298 748.2217 665.7109 748.0182 665.0192 748.9791 664.1515 750.0393 662.9675 750.0382 662.4159 750.0387 661.8946 749.7986 661.3529 749.7014 659.7527 749.416 658.131 750.4515 657.3314 751.8643 656.5334 753.2773 656.4249 754.9824 656.5703 756.597 655.077 754.9277 655.5183 752.1659 656.9515 750.4492 658.0976 749.0761 659.6997 748.2127 661.3594 747.5071ZM710.0099 748.4394C708.0148 758.3097 701.1088 767.0571 691.9744 771.2923 682.8398 775.527 671.6959 775.1463 662.8745 770.288 661.8084 769.7004 660.6139 769.0252 659.4347 769.3387 658.4434 769.5998 657.7526 770.5026 657.3419 771.4426 656.3078 773.7942 656.646 776.6952 658.1954 778.7407 660.1184 781.2816 663.4488 782.2743 666.5939 782.7639 677.1869 784.3995 688.4918 781.7842 696.9254 775.1718 705.3588 768.5572 710.6542 757.9191 710.0039 748.4349ZM614.5424 755.568C615.2494 756.4085 616.0759 757.1497 616.987 757.7586 614.8791 757.26 612.9397 756.0694 611.5314 754.4268 611.6332 754.4701 611.7375 754.5093 611.8427 754.5447 612.7024 754.9815 613.6126 755.3132 614.5424 755.568ZM619.2544 757.3482C619.4356 757.4632 619.6181 757.5763 619.8024 757.6869 618.0452 757.4312 616.3529 756.7277 614.9262 755.6686L614.9741 755.6805C616.4082 756.1981 617.8416 756.7475 619.2544 757.3482ZM667.902 715.9051C666.7498 714.9889 665.3755 714.3523 663.9282 714.0747 662.6047 713.8165 661.2284 713.861 659.9237 714.1924 659.5668 714.1346 659.2096 714.0787 658.8527 714.0212 658.11 713.9021 657.3674 713.7828 656.6272 713.6487 654.2033 713.2099 651.6686 712.5318 649.6526 711.059 647.8002 709.7051 646.3369 707.4768 646.5336 705.1039 646.7128 702.9468 648.2083 701.0623 649.5695 699.4834 652.1873 696.4478 655.0696 693.5329 658.0029 690.8029 659.5634 689.3504 661.163 687.9348 662.8102 686.5815 664.2811 685.3731 665.803 684.1987 667.3861 683.1403 667.7637 682.8877 667.8669 682.3712 667.6163 681.9925 667.4369 681.7207 667.1132 681.5854 666.794 681.6387 666.6792 681.6577 666.5703 681.7 666.4734 681.7646 664.8588 682.8418 663.306 684.0377 661.8059 685.2688 660.1348 686.6402 658.512 688.0757 656.9291 689.5483 653.9355 692.3327 650.9965 695.3054 648.3234 698.4003 647.1788 699.7258 646.0466 701.1799 645.4032 702.8237 643.7982 702.9159 642.4685 701.2573 642.1995 699.7949 641.8511 697.9005 642.5989 695.8865 643.3398 694.1673 644.4836 691.5121 645.7742 688.909 647.1397 686.3613 648.6352 683.5711 650.2337 680.8314 651.9149 678.1493 653.7719 675.1868 655.7372 672.2807 657.8246 669.4756 658.095 669.1122 658.0196 668.5929 657.6588 668.3202 657.4779 668.1835 657.2526 668.1328 657.0298 668.1696 656.8174 668.2051 656.6287 668.3202 656.5 668.4931 654.3808 671.3405 652.3849 674.2894 650.499 677.2963 648.798 680.0083 647.1808 682.7786 645.6682 685.6002 644.2841 688.182 642.977 690.8204 641.8193 693.5119 640.931 695.5773 640.1551 697.8214 640.5769 700.0963 640.7229 700.8843 641.0517 701.6496 641.5106 702.3127 641.3012 702.3135 641.088 702.2724 640.9046 702.2041 640.292 701.9753 639.7614 701.4677 639.3008 701.0181 637.1759 698.9451 635.2656 696.6493 633.6045 694.1891 632.5608 692.644 631.5148 690.8511 631.3757 688.9482 631.2257 686.899 632.1203 684.9128 633.1025 683.1672 633.4523 682.6822 633.7809 682.1816 634.0802 681.6637 634.1383 681.5633 634.174 681.4522 634.1862 681.3377 636.7501 677.1172 639.4725 672.9525 642.221 668.8508 643.847 666.4241 645.4964 664.0109 647.1856 661.6276 648.5443 659.7111 649.9338 657.7863 651.401 655.9515 651.6856 655.5954 651.6295 655.0685 651.2703 654.7859 651.1014 654.6529 650.8922 654.5908 650.6802 654.6104 650.66 654.6093 650.6396 654.6104 650.6192 654.6138 650.4157 654.6475 650.2385 654.7547 650.1098 654.9157 648.6296 656.7676 647.2276 658.7087 645.857 660.6422 644.1585 663.0381 642.4999 665.464 640.8649 667.9032 639.22 670.358 637.5983 672.8295 636.0043 675.318 634.7214 677.3213 633.4483 679.3384 632.2289 681.3811 632.0563 681.6705 631.8865 681.9616 631.7215 682.255 630.508 683.922 629.0297 685.3949 627.5727 686.8466 626.3657 688.0496 625.1564 689.2577 624.0725 690.5744 623.4398 691.3429 622.8567 692.149 622.2711 692.9529 621.6236 693.8422 620.9719 694.7323 620.2582 695.5696 619.0109 697.0326 617.4788 698.3969 615.6181 698.9981 613.565 699.6614 611.6803 699.1475 610.0753 698.0471 612.0139 696.3233 613.2767 694.0114 614.2286 691.7298 614.4043 691.3103 614.5767 690.8683 614.5566 690.4227 614.5353 689.9712 614.2796 689.4986 613.8043 689.3039 613.5267 689.1891 613.2254 689.1795 612.9249 689.2302 622.8383 676.3031 633.7851 664.1855 645.656 653.021 645.7292 652.9717 645.7941 652.9105 645.8479 652.8407 655.2113 644.0502 665.1337 635.862 675.5389 628.3335 676.5046 627.6348 677.4727 626.9391 678.4415 626.2447 687.8098 619.5328 697.7798 612.4306 703.1571 601.9067 703.3654 601.4988 703.2022 601.0033 702.8014 600.7995 702.6446 600.7141 702.4609 600.6835 702.2846 600.7127 702.0221 600.7564 701.799 600.9165 701.6839 601.1527 696.4631 611.373 686.592 618.3763 677.4792 624.903 676.5094 625.5975 675.5406 626.2934 674.5745 626.9927 664.1453 634.5459 654.192 642.7497 644.8005 651.56 644.5403 651.5991 644.2807 651.64 644.0213 651.6831 642.6369 651.9132 641.2595 652.1879 639.8926 652.504 632.6521 654.179 625.7324 657.019 618.8751 659.8301 610.6723 663.1926 602.2752 666.6446 593.4512 667.9488 592.7136 668.058 591.9738 668.1521 591.2342 668.2484 587.2056 668.7737 582.9562 669.3267 579.6317 671.8714 579.2723 672.1464 579.2006 672.6654 579.4747 673.0262 579.7522 673.3916 580.2741 673.4616 580.6378 673.1821 583.6603 670.8603 587.7754 670.3656 591.4491 669.8866 592.1963 669.7891 592.9441 669.6933 593.6899 669.5833 595.5426 669.31 597.3809 668.9435 599.2013 668.5044 606.1878 666.8184 612.8651 664.0804 619.4976 661.3588 626.2622 658.5831 633.1184 655.7692 640.2609 654.1163 641.048 653.9338 641.8389 653.7665 642.6323 653.6134 630.3336 665.3806 619.0435 678.1737 608.8898 691.8321 608.4366 692.3254 608.0426 692.858 607.7177 693.4192 607.9289 693.131 608.1409 692.8432 608.3535 692.5558 606.956 693.9278 605.9254 695.5673 605.3664 697.3174 605.1994 697.8263 605.0764 698.3722 605.2212 698.8895 605.3664 699.4108 605.8429 699.8941 606.4693 699.9562 606.9209 699.9993 607.3622 699.8182 607.7577 699.6234 608.089 699.4576 608.406 699.2765 608.709 699.0829 610.818 700.6776 613.3768 701.4594 616.1315 700.5702 618.2986 699.8703 620.058 698.343 621.5151 696.6383 622.2566 695.77 622.9295 694.8476 623.6028 693.9261 624.1708 693.1488 624.74 692.3704 625.3515 691.6263 626.3986 690.3516 627.5733 689.1809 628.7411 688.0181 629.1181 687.6428 629.4946 687.2672 629.8673 686.8879 629.731 687.6043 629.6763 688.3322 629.7296 689.0678 629.8914 691.3003 631.0103 693.2988 632.2374 695.1155 633.9603 697.6664 635.9448 700.0498 638.1471 702.2007 638.7934 702.832 639.4606 703.4323 640.3209 703.7546 641.1237 704.0554 642.056 704.0614 642.8205 703.6574 643.4529 704.1104 644.1775 704.4043 644.9513 704.4695 644.9255 704.6334 644.9057 704.7984 644.8921 704.9639 644.6443 707.9207 646.3616 710.6956 648.6846 712.3955 649.6911 713.1325 650.8106 713.6963 651.9759 714.1351 651.5201 714.4118 651.0634 714.687 650.6082 714.9643 650.0543 715.3013 649.5554 715.703 649.4377 716.3847 649.4335 716.4094 649.4298 716.434 649.4267 716.459 645.5134 718.7383 641.5838 721.0519 638.1468 724.0252 637.6507 724.4541 637.2258 724.9394 637.2009 725.6333 637.1651 726.6402 638.0563 727.3953 639.0091 727.4662 639.7067 727.518 640.3085 727.2666 640.9247 726.9795 644.256 725.4258 647.5895 723.8631 650.7975 722.0642 651.4033 721.7246 651.9781 721.3626 652.3875 720.7841 652.6003 720.4833 652.7477 720.1372 652.8076 719.7744 653.5559 719.7718 654.279 719.4915 654.9403 719.1567 655.8837 718.6791 656.7863 718.1254 657.6834 717.5673 657.9349 717.4108 658.1866 717.2546 658.4391 717.1004 658.4545 717.4244 658.5304 717.7445 658.6892 718.0299 659.2618 719.0609 660.4299 719.5663 661.566 719.6301 662.2897 719.6706 662.9882 719.5564 663.7025 719.4319 663.906 719.3925 664.1107 719.3599 664.3157 719.3299 667.4907 718.8622 670.7818 719.6635 673.8616 720.3977 674.4903 720.5479 675.1188 720.6993 675.7495 720.8408 679.7455 721.7376 684.2228 722.2326 687.9523 720.1443 691.0449 718.4126 692.8325 715.3458 694.5554 712.3771 695.6232 710.5368 696.7293 708.6129 698.1814 707.046 699.084 706.0723 700.1342 705.225 701.1655 704.3927 702.3107 703.4686 703.4553 702.538 704.4457 701.4447 706.7815 698.8652 708.0911 695.5756 709.3312 692.3761L713.9985 680.334C714.0047 680.3175 714.0104 680.3008 714.0155 680.2838L735.1194 666.5924C736.0106 666.0142 736.8681 665.4322 737.4438 664.5112 738.1199 663.4298 738.1973 661.89 737.276 660.918 736.6059 660.2108 735.7119 660.024 734.7694 660.1808 733.8728 660.3299 732.9869 660.7723 732.2278 661.2582L721.3317 668.2334C719.9467 669.1201 718.5617 670.0065 717.1775 670.8946 719.3625 660.2057 724.3325 650.0874 730.3637 641.0687 736.7545 631.5134 744.4315 622.8731 752.0525 614.2983 752.3538 613.959 752.3206 613.4332 751.9816 613.1324 751.7948 612.9666 751.5442 612.8949 751.2985 612.9357 751.1122 612.9666 750.9407 613.061 750.8154 613.2022 743.1389 621.8365 735.4261 630.5278 728.9921 640.1511 722.5722 649.7538 717.3377 660.5759 715.2814 672.0083 715.2741 672.046 715.2693 672.0837 715.2673 672.1214 705.7681 678.2306 696.3165 684.445 687.2545 691.1918 682.844 694.4751 678.4982 697.9102 674.6391 701.8387 673.2405 703.2623 671.8586 704.7896 670.7551 706.4575 670.7378 706.4838 670.7217 706.5108 670.7072 706.5391L670.6967 706.5598 670.678 706.6012C670.6142 706.7571 670.5986 706.9277 670.6344 707.0924 671.0131 708.8443 671.3872 710.6661 671.0349 712.455 670.7392 713.9551 669.6513 715.6174 668.0384 715.8855 668.0271 715.8872 668.0154 715.8892 668.0041 715.8912 667.9701 715.8963 667.9361 715.9011 667.902 715.9051ZM593.2845 771.9381C593.8112 771.7459 594.3376 771.5534 594.9269 771.4071 598.3707 770.6546 601.685 770.8674 605.0245 771.9664 606.8971 772.5679 608.648 773.4665 610.2697 774.6072 612.9658 776.5841 615.1224 779.0329 616.7483 782.0084 617.6611 783.6253 618.3677 785.3287 618.9973 787.0796 620.0461 787.3316 621.1633 787.3628 622.2155 787.1715 624.9067 786.6819 627.2317 785.0358 629.3132 783.2602 631.3025 781.5631 633.1793 779.6772 634.46 777.3956 635.3459 775.8145 635.9281 774.0247 636.0075 772.2264 634.5153 768.462 631.7657 765.1638 628.617 762.679 627.3434 765.8708 624.5527 768.4455 621.2472 769.4011 623.1552 768.2854 624.8829 766.8516 626.3331 765.1749 626.8283 764.6 627.2938 763.9926 627.5786 763.2924 627.7331 762.9097 627.8287 762.4976 627.8403 762.088 626.9854 761.4598 626.1001 760.8759 625.1913 760.3299 620.968 762.215 616.5711 763.4608 612.0887 764.0308 610.8622 764.1918 609.5327 764.3381 608.6276 765.1848 607.4118 766.3297 607.466 768.2431 607.6094 769.9124 606.7619 767.8026 606.8585 765.3342 607.8654 763.2978 606.2936 764.5073 605.4131 766.5602 605.6189 768.5291 605.0906 766.7036 605.2337 764.6927 606.0149 762.9565L605.8755 762.8318C604.2359 764.1947 603.3436 766.4193 603.6214 768.5408 602.9549 766.298 603.4246 763.7562 604.8366 761.898L604.832 761.8938C603.1587 763.5396 602.1876 765.879 602.2054 768.2292 601.4917 766.5211 601.6606 764.4742 602.6428 762.9075 603.1001 762.1988 603.5703 761.6665 604.1279 761.2586L604.1194 761.2512C603.0496 761.739 602.2276 762.6696 601.6711 763.7063 601.1016 764.7545 600.7703 765.9128 600.4463 767.0648 599.8983 764.6009 600.8661 761.8637 602.8461 760.2976 600.7521 761.8453 599.2855 764.2049 598.8166 766.768 598.3004 764.3313 599.2883 761.639 601.2567 760.1173 599.4034 761.0842 597.9764 762.8372 597.405 764.8444 597.3973 762.3176 599.1171 759.8786 601.4996 759.0322 599.8442 759.1473 598.2307 759.8279 596.9965 760.9382 597.6099 759.4929 598.6848 758.1818 600.1319 757.5735 597.5348 755.1145 595.0176 752.5732 592.6864 749.8636 588.5206 745.022 584.983 739.6413 582.9466 733.5505 581.142 728.1536 580.6029 722.4307 580.0723 716.7977 579.5558 711.3195 579.0387 705.708 577.2832 700.4622 576.6701 698.8348 576.0119 697.2231 575.274 695.6481 575.2511 695.5988 575.2335 695.5475 575.2208 695.4948L574.9923 695.0098C573.6112 692.0793 572.2245 689.0992 571.8705 685.8383 571.1871 679.54 574.5467 673.4991 578.8845 669.1861 582.0959 665.9932 585.8955 663.482 589.6613 661.0017 590.9267 660.1686 592.1938 659.3383 593.4396 658.4763 597.5073 655.662 601.6079 652.3223 603.7081 647.7194 604.874 645.1645 605.336 642.422 605.3287 639.6259 605.3199 636.192 604.616 632.7119 603.648 629.4291 603.0371 627.3567 602.3305 625.3126 601.6195 623.2728 600.2062 619.2173 598.7863 615.1218 598.1477 610.8585 598.081 610.414 598.3838 609.9911 598.8283 609.9171L598.8387 609.9157C599.2951 609.8491 599.7183 610.1595 599.7855 610.611 600.4009 614.7607 601.8021 618.7782 603.1777 622.7249 603.898 624.7919 604.6155 626.862 605.2346 628.9622 606.2545 632.4228 606.9827 636.0812 606.981 639.7007 606.9798 642.7106 606.4656 645.6538 605.2122 648.4031 602.9728 653.3144 598.7197 656.8305 594.3779 659.8324 593.121 660.7012 591.8477 661.5456 590.5712 662.3853 586.9077 664.7956 583.1697 667.2529 580.047 670.3571 576.0788 674.3021 572.8847 679.8781 573.5143 685.6554 573.8448 688.6919 575.2052 691.5694 576.491 694.3059 577.0862 695.5724 577.6815 696.8409 578.1977 698.142 578.4282 698.7223 578.6408 699.3099 578.8389 699.9021 579.5787 701.8688 580.2531 703.8584 580.9277 705.8477 581.3167 706.9935 581.709 708.1379 582.1101 709.2794 583.7632 713.9852 585.6449 718.6581 588.5631 722.7411 588.8282 723.1119 588.7443 723.6286 588.3727 723.8937 588.0025 724.1576 587.4866 724.0728 587.2218 723.7029 584.5867 720.0247 582.7742 715.9099 581.2197 711.6914 581.4079 713.3383 581.5638 714.9889 581.7195 716.6392 582.2371 722.1305 582.7581 727.7703 584.5153 733.0283 587.7505 742.7095 594.7948 750.3636 602.2029 757.2617 603.1375 757.3516 604.0295 757.7487 604.6347 758.463 603.7705 757.4766 602.7077 756.6678 601.5305 756.0924 603.4127 756.6843 605.1742 757.65 606.6862 758.9146 605.3046 757.5642 604.1908 755.9447 603.4221 754.1711 604.5783 756.2228 606.5306 757.8159 608.7813 758.5342 607.0521 757.2844 605.8015 755.3982 605.3227 753.3249 606.5739 755.5697 608.5701 757.391 610.914 758.442 609.41 757.262 608.3113 755.5808 607.8319 753.7326 608.781 755.6579 610.3446 757.2728 612.2378 758.2859 610.9055 757.0026 609.9352 755.3534 609.4604 753.5687 610.1867 755.5796 611.8517 757.2254 613.87 757.9179 612.6795 756.9354 611.7392 755.659 611.1462 754.236 610.7992 754.0464 610.4767 753.804 610.1906 753.5228 608.1608 751.9887 606.7579 749.7873 605.6552 747.5292 603.794 743.7178 602.6012 739.4315 603.1446 735.1651 603.2475 734.358 603.462 733.5646 604.1324 733.0382 604.4241 732.8092 604.7736 732.666 605.1385 732.6054 605.6107 732.5269 606.1048 732.5821 606.5626 732.7123 608.7614 733.3364 610.2646 735.4397 610.7559 737.5901 611.2219 739.6294 610.9458 741.702 610.5903 743.7334L610.5053 744.2186C610.2136 745.8843 609.8978 747.6344 610.0792 749.3264 610.1915 750.3724 610.558 751.5077 611.2993 752.2826 611.6715 752.5528 612.0649 752.7932 612.4723 753.0075 613.2577 753.2527 614.1373 753.1517 614.8996 752.8714 615.9535 752.4839 616.8694 751.7784 617.7087 751.0487 620.193 748.8899 622.3028 746.2023 623.8256 743.2852 624.0373 742.8796 624.5382 742.7259 624.9438 742.9354 625.3489 743.1449 625.5034 743.6506 625.2934 744.0537 623.6586 747.1933 621.4643 749.9741 618.7935 752.2974 617.9295 753.0491 617.025 753.7422 615.9847 754.2136 616.0385 754.2249 616.0927 754.236 616.1468 754.2471 621.7155 755.3772 627.1676 757.1854 632.2309 759.7777 638.0101 762.7363 643.5388 766.2158 648.7019 770.1523 649.0616 770.4264 649.1327 770.9462 648.8626 771.3085 648.578 771.6725 648.0635 771.7408 647.7007 771.4641 642.6162 767.5877 637.1719 764.1595 631.478 761.2503 629.5873 760.2843 627.6404 759.4302 625.6534 758.6821 626.83 759.371 627.9718 760.1185 629.0637 760.936 631.624 762.8525 633.8991 765.2013 635.6256 767.8996 637.1943 770.351 638.3188 773.1153 638.6978 776.0115 638.7276 776.2099 638.6797 776.4029 638.5774 776.5608 638.9487 778.197 639.1468 779.8714 639.1627 781.547 639.178 783.3112 638.9405 785.2034 637.7717 786.5232 636.942 787.4595 635.7487 787.9745 634.5933 788.4663 632.7714 789.2345 630.955 790.0081 629.1334 790.776 627.6481 791.4087 626.1154 792.0493 624.5019 792.0618 622.9593 792.074 621.4748 791.4954 620.1952 790.6105 621.4294 794.2527 622.7943 797.8609 624.6615 801.258 626.9771 805.462 629.8404 809.2483 633.4517 812.4746 635.5162 814.326 637.7105 815.9346 640.0888 817.2927 643.8127 819.4448 647.8251 820.9409 652.0632 821.7346 654.1821 822.1311 656.2757 822.3653 658.3992 822.4279 659.5106 822.4234 660.6142 822.3647 661.7174 822.3063 662.7039 822.21 663.7527 822.1598 664.7224 821.9551 667.9196 821.4072 670.9411 820.4417 673.8792 818.9325 676.0981 817.8123 678.2462 816.5917 680.2523 815.1707 680.599 814.8946 680.946 814.6188 681.4182 814.4348 681.3264 814.5604 681.2345 814.6857 681.1424 814.811 678.7519 817.348 676.0857 819.5383 673.1439 821.3817 670.657 822.9325 668.0911 824.3286 665.3035 825.3694 663.9412 825.9129 662.5536 826.2933 661.1743 826.7281 659.9699 827.1099 658.7478 827.3812 657.5179 827.5978 656.3112 827.8098 655.0965 827.9691 653.8816 828.1287 652.0805 828.3504 650.2371 828.3005 648.394 828.2503 644.5908 828.1128 640.8669 827.4067 637.2935 826.2326 633.5487 825.0293 630.0547 823.2868 626.874 821.0511 625.0725 819.8269 623.4092 818.4141 621.8374 816.8766 618.6317 813.7548 616.1278 810.1355 614.1716 806.0984 613.0514 803.8794 612.186 801.5097 611.4297 799.1235 610.907 797.5352 610.5557 795.9764 610.2505 794.3547 609.9829 792.6163 609.6067 790.8945 609.2847 789.1642 608.7495 786.4098 608.1058 783.6727 606.8809 781.1357 605.5685 778.39 603.9173 775.9746 601.3174 774.2611 599.3365 772.9534 597.1671 772.2303 594.7642 772.1555 594.3127 772.1135 593.8322 772.2434 593.3347 772.2641 593.3557 772.0384 593.293 771.9925 593.2845 771.9381ZM646.9101 825.4755C646.7389 825.4463 646.5047 825.3709 646.3335 825.3417 644.1979 824.8363 642.0453 824.222 640.031 823.4198 636.2274 821.8361 632.6918 819.822 629.4983 817.1433 626.305 814.4646 623.605 811.3762 621.3436 807.8868 619.2329 804.6519 617.5945 801.2333 616.3109 797.5933 615.1946 794.3168 614.1328 791.032 613.0168 787.7554 612.8243 787.2287 612.6321 786.702 612.4941 786.1674 612.6029 787.5967 612.8118 788.9547 613.0295 790.3675 613.3473 792.432 613.7192 794.4883 614.3006 796.4566 614.7686 798.0531 615.2831 799.5869 615.8514 801.1123 616.8756 803.7913 618.2631 806.3031 619.8517 808.6725 621.0763 810.4861 622.4474 812.1662 623.9186 813.7752 625.7117 815.6682 627.6971 817.365 629.8577 818.7565 630.9694 819.4751 632.0897 820.2481 633.2474 820.9043 636.4698 822.6887 639.843 824.0049 643.3744 824.9074 644.5905 825.2206 645.7442 825.4879 646.9101 825.4755ZM760.1774 626.7005C771.1662 625.0946 784.2589 625.0734 792.8147 628.4336 793.4769 628.6938 794.0988 628.9713 794.6725 629.2613 796.5584 626.3651 799.0432 624.037 802.0655 622.3368 802.9154 621.858 803.5294 621.2364 803.8947 620.4898 804.5135 619.2215 804.4146 617.5565 803.6243 615.9203 802.4187 613.4236 799.9177 611.5422 796.9357 610.8834 795.0209 610.4619 787.9283 609.3757 777.0711 613.1154 769.919 615.5785 762.7669 619.7063 756.2061 625.1346 756.8558 624.8988 757.5766 624.6408 758.3326 624.3826 759.1714 624.092 760.0966 623.7879 761.3382 623.393L762.9341 622.9046C763.1209 622.8507 763.3094 622.7955 763.4976 622.7396 763.854 622.6345 764.2131 622.5287 764.5708 622.4315L764.6134 622.4196C765.1466 622.2708 765.6973 622.1166 766.2472 621.976L767.9418 621.5465C768.9495 621.2979 770.0635 621.049 771.3519 620.7843 771.7652 620.7026 772.1768 620.6253 772.5852 620.549L773.0408 620.4637 773.6054 620.3693C773.9671 620.3086 774.326 620.248 774.6919 620.1916 774.881 620.1652 775.0692 620.1377 775.256 620.1108 775.6038 620.0603 775.948 620.0104 776.2952 619.9679 776.4792 619.9472 776.662 619.9251 776.8426 619.9038 777.1771 619.8639 777.5062 619.8245 777.8367 619.7936 778.0144 619.7786 778.1902 619.7624 778.3637 619.7468 778.6794 619.7179 778.9887 619.6901 779.3005 619.668L780.6759 619.5889 781.9143 619.5583C782.1241 619.5509 782.3296 619.5529 782.5258 619.5566L783.5873 619.5711C783.7019 619.573 783.8133 619.579 783.9224 619.5855L784.9134 619.6394C785.0577 619.6456 785.1934 619.6561 785.3088 619.67L786.5348 619.793 786.4359 621.1066 785.1997 621.0488C785.103 621.0425 784.9993 621.0405 784.8825 621.0417L783.883 621.0408C783.7894 621.0408 783.6942 621.0397 783.5998 621.0428L782.5453 621.0853C782.371 621.0916 782.1921 621.0989 781.9994 621.1165L780.7861 621.2106 779.4573 621.36C779.1667 621.396 778.8705 621.4391 778.5689 621.483 778.3943 621.5077 778.2182 621.5332 778.0467 621.5576 777.7372 621.6035 777.4234 621.6579 777.1051 621.7138 776.9245 621.7452 776.7425 621.7764 776.5665 621.8059 776.2397 621.8643 775.9097 621.9303 775.5752 621.9975 775.391 622.0344 775.2056 622.0715 775.0287 622.1058 774.6945 622.1761 774.3566 622.2512 774.0162 622.3275L772.973 622.5695C772.5917 622.6628 772.2074 622.7563 771.8267 622.8533 770.5627 623.1844 769.5224 623.4758 768.551 623.7717L766.9148 624.2811C766.366 624.454 765.8036 624.6442 765.3025 624.814 764.9629 624.9257 764.6275 625.0445 764.2939 625.163 764.104 625.2301 763.9146 625.297 763.7366 625.3591L762.2039 625.9195C761.4295 626.2123 760.7673 626.4672 760.1774 626.7005ZM758.0769 630.3796C758.6008 630.4105 759.174 630.4487 759.8129 630.4958L761.4896 630.6369C761.7543 630.6616 762.0191 630.6854 762.283 630.7135 763.2794 630.8167 764.0405 630.9057 764.7497 631.0015L765.9513 631.171C766.3516 631.2288 766.745 631.2951 767.1308 631.3609 767.8704 631.4851 768.6173 631.6285 769.3515 631.7867 770.0737 631.9426 770.7385 632.103 771.3156 632.2598 771.6022 632.3318 771.8669 632.4109 772.1229 632.4874L772.5954 632.6283C772.6873 632.6566 772.7771 632.6867 772.8647 632.7164L773.2293 632.8389C773.3818 632.8896 773.5277 632.9381 773.6712 632.9911L774.2299 633.2037 775.2969 633.6533 774.8189 634.8807 774.54 634.7835 773.2154 634.3642C773.0901 634.3279 772.9574 634.2948 772.818 634.2602L772.4324 634.1624C772.357 634.1431 772.2802 634.1236 772.1946 634.104L771.7371 634.0045C771.4905 633.9509 771.2357 633.8951 770.9613 633.8472 770.3878 633.7369 769.7426 633.6323 769.0431 633.5359 768.3248 633.4367 767.5971 633.3534 766.878 633.2876 766.5029 633.2528 766.122 633.2176 765.7302 633.1915L764.547 633.1141C763.8582 633.0733 763.0914 633.0419 762.1328 633.0155 761.8723 633.0078 761.6109 633.0036 761.3501 632.9996L759.7176 632.9852C758.8069 632.9874 758.0619 632.9962 757.37 633.0129 756.5868 633.0288 755.8226 633.0569 755.1797 633.0821 754.4829 633.1113 753.8247 633.1439 753.2169 633.1796 752.7969 633.2037 752.3796 633.2298 751.9683 633.2579 752.1973 633.5966 752.434 633.9413 752.6755 634.2902 753.0216 634.7906 753.4018 635.3294 753.8066 635.8949 754.2048 636.4477 754.638 637.0449 755.1037 637.6671 755.511 638.2151 755.9626 638.8072 756.523 639.5272L757.5483 640.8164C757.7101 641.0163 757.8723 641.217 758.0373 641.4165 758.6481 642.1544 759.145 642.7395 759.6031 643.2582L760.3934 644.144C760.6528 644.4332 760.9156 644.7124 761.1746 644.9876 761.667 645.5109 762.1812 646.033 762.702 646.539 763.2145 647.0359 763.6944 647.4798 764.1388 647.8671 764.3356 648.0456 764.536 648.2117 764.7299 648.3728L765.0969 648.6775C765.1579 648.7274 765.22 648.775 765.2806 648.8218L765.5967 649.0664C765.7106 649.1551 765.8195 649.2402 765.9198 649.3133L766.5976 649.7957 767.3185 650.2618 766.6475 651.3951 766.0746 651.0835 765.1182 650.518C764.9923 650.4403 764.8631 650.3545 764.727 650.2637L764.4033 650.0503C764.3285 650.001 764.2522 649.9511 764.1709 649.8941L763.7825 649.6177C763.5617 649.4618 763.3332 649.2994 763.1067 649.1234 762.6217 648.7611 762.0863 648.3362 761.5137 647.8597 760.9317 647.3738 760.3591 646.8729 759.8123 646.3732 759.522 646.109 759.2272 645.8394 758.939 645.5622L758.0628 644.718C757.55 644.2183 756.9944 643.6568 756.3161 642.9521 756.1304 642.7596 755.9473 642.5651 755.7639 642.3704L754.6204 641.1362C754.183 640.654 753.8049 640.2319 753.4621 639.843 753.529 639.9689 753.5971 640.095 753.6654 640.2212 758.5648 649.2798 766.7413 660.6961 774.9989 665.568 775.6903 665.9762 776.3584 666.3175 776.9849 666.5834 777.6153 666.8524 778.216 667.05 778.7699 667.171 779.6602 667.3663 780.4315 667.3689 781.0617 667.1792 781.9835 666.9014 782.744 666.159 783.3226 664.9724 784.4221 662.7172 784.5248 659.6759 784.1565 657.807 783.0204 652.0592 783.4861 649.7583 783.6562 649.19L783.7807 648.7696 784.0352 648.4119C784.3785 647.9277 785.9047 646.1425 791.1329 643.498 792.8334 642.6383 795.1649 640.6852 796.265 638.4285 796.8438 637.2422 796.9606 636.186 796.6114 635.29 796.3713 634.6738 795.8942 634.068 795.1924 633.4883 794.7573 633.1277 794.2317 632.776 793.6305 632.4429 793.0349 632.1129 792.3546 631.7969 791.6085 631.5038 782.6859 627.9993 768.6575 628.5872 758.5038 630.3064 758.3613 630.3305 758.2187 630.3549 758.0769 630.3796ZM751.5578 665.4396C755.2979 676.2971 760.5224 681.2152 762.035 682.4642 764.3866 684.409 767.4094 685.2195 770.1208 684.6318 771.8956 684.248 773.2684 683.2998 773.8875 682.0305 774.2517 681.2836 774.3623 680.417 774.216 679.4549 773.6947 676.0256 773.9986 672.6336 775.1194 669.3633 774.5374 669.09 773.9357 668.7706 773.3228 668.4092 765.4059 663.7374 757.3592 653.4082 751.8563 643.7614 752.036 644.37 752.2427 645.048 752.4879 645.8346L752.9888 647.3837C753.0528 647.57 753.1155 647.7585 753.1787 647.947 753.2918 648.2846 753.4052 648.6248 753.5341 648.9828 753.7156 649.5015 753.9038 650.0378 754.1014 650.5642L754.7068 652.1652C755.0725 653.1134 755.4835 654.1132 755.9983 655.3071 756.1568 655.6663 756.3175 656.0229 756.4771 656.3764L756.9366 657.3643C757.0854 657.6778 757.2334 657.989 757.3788 658.2855 757.4666 658.4579 757.5528 658.6294 757.639 658.8003 757.7904 659.1016 757.9403 659.4001 758.0911 659.6844 758.1798 659.848 758.2674 660.0107 758.3536 660.172 758.5058 660.4574 758.6561 660.7378 758.8071 661.0054 758.8962 661.159 758.984 661.3123 759.0708 661.464 759.2227 661.7302 759.3721 661.991 759.5186 662.2362L760.2123 663.3638 760.902 664.4038C761.0017 664.5583 761.1066 664.7037 761.2109 664.8477L761.8229 665.6987C761.8799 665.7778 761.9386 665.852 761.9958 665.924L762.6186 666.7197C762.6844 666.8065 762.7496 666.8861 762.8213 666.9666L763.6215 667.8978 762.6467 668.7833 761.8028 667.9026C761.7124 667.8113 761.6205 667.7104 761.5338 667.6075L760.8719 666.8501C760.8008 666.7693 760.7282 666.6863 760.6539 666.5953L759.9946 665.7735C759.8682 665.6187 759.7397 665.4583 759.6218 665.295L758.8653 664.2763 758.0886 663.1543C757.9162 662.898 757.745 662.6324 757.5704 662.362 757.4783 662.2197 757.3856 662.0757 757.2875 661.9258 757.1134 661.6539 756.9437 661.3736 756.7707 661.0884 756.6749 660.93 756.578 660.7698 756.4748 660.6028 756.3005 660.3117 756.1301 660.0135 755.9572 659.7116 755.8617 659.5444 755.7656 659.3766 755.663 659.1986 755.4878 658.8867 755.3154 658.569 755.1417 658.2481L754.6414 657.3073C754.4534 656.9453 754.2643 656.5805 754.0758 656.2074 753.4817 655.0109 753.006 654.0094 752.578 653.0556L751.8742 651.4586C751.6386 650.9203 751.4152 650.3786 751.2018 649.8592 751.0552 649.5114 750.9172 649.1625 750.7803 648.8155 750.7083 648.6338 750.6371 648.4533 750.5603 648.2631L749.9639 646.7088C749.5106 645.4877 749.181 644.5718 748.8969 643.7409 748.6336 642.9849 748.3929 642.2584 748.1786 641.6002 747.9417 650.1112 749.0954 658.2872 751.5578 665.4396ZM783.0162 678.9076 783.0164 678.9073C784.6622 677.6045 785.7303 675.3648 785.8726 672.9174 785.8871 672.6719 785.8936 672.4233 785.9001 672.1551 785.9203 671.3838 785.9409 670.5862 786.1518 669.7369 786.3987 668.7536 786.8526 667.914 787.2523 667.1752L787.3523 666.9879C788.5712 664.7156 790.1762 661.2959 790.0396 657.8419 790.0243 657.4626 789.9837 657.076 789.9194 656.6944 789.9129 656.6564 789.9066 656.6185 789.8995 656.5805 789.8278 656.1967 789.7314 655.8174 789.6135 655.4529 789.0545 653.7311 788.0017 652.3115 786.7117 651.494 786.7097 652.5958 786.8429 654.3961 787.3909 657.1675 787.974 660.0954 787.7092 665.8699 784.5333 668.8667 782.911 670.3971 780.7453 670.9331 778.2418 670.432 777.2953 673.1997 777.0376 676.065 777.4764 678.9594 777.5192 679.2429 777.5484 679.5224 777.5637 679.7954 779.2401 680.5077 781.4279 680.1656 783.0162 678.9076ZM799.6839 644.8652 799.6844 644.8629C799.7423 644.4578 799.7766 644.0372 799.81 643.629L799.8123 643.5992C799.88 642.7979 799.9506 641.9699 800.1652 641.1141 800.6267 639.2636 801.625 637.7655 802.5908 636.3164 803.0631 635.6061 803.5537 634.8713 803.9401 634.1329 804.8401 632.4106 805.2035 630.5357 804.9682 628.852 804.7871 627.5475 804.2131 626.3073 803.3777 625.3863 800.9654 626.8056 798.971 628.7122 797.4374 631.063 799.374 632.7278 800.2862 634.7633 800.0787 636.9843 799.6734 641.3321 795.2893 645.0919 792.6214 646.4404 790.7632 647.3803 789.4695 648.1718 788.5947 648.7722 790.2147 649.8179 791.5218 651.4206 792.3617 653.4003 796.1729 652.1647 799.1459 648.7319 799.6839 644.8652ZM747.9706 628.2026C768.2372 607.7812 789.2923 605.823 797.6458 607.6636 802.2317 608.6741 805.9864 611.9688 807.2033 616.055 808.0138 618.7734 807.5571 621.3892 805.9592 623.3323 807.1679 624.7287 807.9721 626.5054 808.236 628.3956 808.5654 630.7529 808.077 633.3327 806.8623 635.6588 806.4051 636.5341 805.8682 637.3429 805.3367 638.1454 804.4875 639.4175 803.6881 640.6189 803.3632 641.9129 803.2144 642.5158 803.158 643.1817 803.0988 643.8866L803.0954 643.9283C803.0568 644.3782 803.0171 644.8445 802.9517 645.321 802.2379 650.4386 798.2816 654.9871 793.2345 656.5776 793.2866 656.958 793.3204 657.3373 793.3351 657.7126 793.5035 661.9652 791.6598 665.9325 790.257 668.55L790.1532 668.7414C789.8145 669.3707 789.4947 669.9651 789.3522 670.536 789.2283 671.0346 789.2127 671.6231 789.1968 672.2453 789.1897 672.5245 789.1818 672.8151 789.1659 673.1093 788.9649 676.5333 787.4694 679.589 785.0628 681.4925 782.767 683.3115 779.6803 683.9118 777.0214 683.0997 776.1288 685.2373 774.2015 686.8743 771.6351 687.6445 769.9309 688.1556 768.1031 688.242 766.3025 687.9393 767.4622 695.2037 769.2883 703.1424 772.1518 710.8586 781.2808 735.4573 786.2264 783.7325 754.7851 811.3042 736.9226 826.9682 715.8691 826.7576 701.0124 823.6551 691.4154 842.7331 675.5769 839.8349 666.0896 835.7868 651.814 840.6961 636.7895 828.5031 636.7895 828.5031 661.5992 839.217 681.8712 819.771 681.8712 819.771 678.4659 826.897 674.4008 831.3296 670.1253 833.9026 683.7409 834.4559 694.4346 827.365 699.4009 823.3027 688.9912 820.9174 682.005 817.268 682.005 817.268 682.005 817.268 705.0115 826.7261 736.9106 813.263 768.8098 799.8001 773.4478 752.3362 769.4419 724.3517 766.9551 706.9825 764.3231 698.7104 763.4903 687.1363 762.2274 686.6206 761.0221 685.9066 759.9334 685.0074 758.2774 683.6391 756.3319 681.5123 754.3984 678.6519 754.3843 680.7515 754.3619 682.8086 754.3395 684.8657L754.3137 707.9315 754.3823 708.2912C755.1264 718.5195 754.3996 728.7678 753.2677 737.5969 751.2449 753.0072 747.6154 764.2125 747.6154 764.2125L747.5811 764.0328C744.9843 773.6187 741.5966 782.5768 737.2196 790.5654 732.4231 799.1654 726.7329 806.5984 719.3869 811.6787 716.0715 813.9849 712.3581 815.6083 708.4043 815.9734 706.1834 816.2821 703.9621 816.5911 701.7412 816.9001 701.5762 816.738 701.5419 816.5585 701.5079 816.3791 701.8656 816.1447 702.3195 815.7121 702.7115 815.6577 707.1534 815.0403 710.8265 812.5004 714.2658 809.439 719.3285 805.0448 723.498 799.4837 727.1382 793.258 731.4877 785.827 735.0123 777.5884 737.8773 768.7029 740.5838 760.3929 742.5683 751.8146 744.3879 743.0751 746.7041 731.3136 748.2645 719.1048 749.4324 706.9496 750.2757 698.7146 751.0847 690.3 752.0584 682.0464 752.3498 680.2724 752.7002 678.4897 753.1492 676.6937 752.3955 675.4425 751.6536 674.0787 750.9421 672.603 749.7187 676.37 748.6821 680.2957 747.741 684.3149 745.9152 692.3177 744.8448 700.7689 743.61 709.0586 742.6913 716.1968 741.6085 723.174 740.6904 730.3127 739.5863 738.5842 737.987 746.371 736.1263 754.194 734.3283 761.6395 732.0694 768.78 729.5148 775.7773 727.6626 780.8315 725.5148 785.7425 723.1334 790.1328 718.2403 798.931 712.5849 806.544 705.1082 811.6424 702.3776 813.498 699.5098 814.6346 696.5391 815.2325 695.2669 815.5936 693.9882 815.2177 692.5793 814.8603 692.8401 814.824 693.1018 814.7877 693.3628 814.7514 699.0494 814.3294 703.4995 810.9434 707.6134 806.4967 713.6399 800.1241 717.6529 791.6329 720.9374 782.136 726.4304 766.0108 730.2793 743.9241 730.7827 724.97 730.624 725.546 730.5619 725.9233 730.4655 726.1214 727.7513 745.1663 717.2308 774.5496 708.5157 790.1915 704.5693 796.9635 697.1332 805.8305 690.8567 808.6425 688.5113 809.7066 685.8298 809.7103 683.2103 809.3364 683.5683 809.102 684.0907 809.0294 684.4825 808.975 688.0442 808.6643 691.0364 806.7725 693.7946 804.3593 700.8384 798.3984 705.8341 790.1391 709.7377 780.372 713.194 771.7731 715.4331 762.4216 717.2121 752.7651 718.8605 743.1265 720.0825 733.3622 721.6002 723.742 723.3659 712.6112 725.0014 701.4983 727.9841 691.1209 731.8602 677.7544 737.8903 666.3696 746.022 657.2781 745.9586 656.9337 745.8962 656.5873 745.8372 656.2372 744.6427 649.1611 744.3916 640.9069 745.7528 631.5324L746.6168 629.4827Z"/>
</clipPath>
</defs>
<g>
<path transform="matrix(1,0,0,-1,0,1080)" d="M0 0H1080V1080H0Z" fill="transparent"/>
<g clip-path="url(#clip_1)">

</g>
<path transform="matrix(1,0,0,-1,0,1080)" d="M563.8898 656.6057C564.1869 665.5224 557.9453 672.3584 550.2172 672.3584 505.9307 672.3584 469.6693 583.7856 406.6577 565.655 423.5995 590.919 436.3804 617.0746 437.5689 642.9334 438.4607 663.4417 421.2218 674.439 401.902 674.439 341.5654 674.439 266.9621 617.3719 266.9621 564.1685 266.9621 549.0102 275.8788 535.0408 299.0622 535.0408 339.7822 535.0408 393.5798 591.2161 386.7437 625.0997H386.149C384.6631 618.5608 380.5019 616.4802 377.5297 614.9942 388.2297 592.7023 336.81 538.0129 299.0622 538.0129 284.7954 538.0129 275.2843 547.2269 275.2843 560.8993 275.2843 598.6468 337.1071 671.4669 401.902 671.4669 419.7356 671.4669 432.8135 661.9558 431.9218 642.9334 429.8414 600.4301 335.9183 478.8652 287.1734 478.8652 271.4204 478.8652 258.6399 487.1874 254.776 499.6709 250.3176 499.0765 244.3731 500.2654 240.5092 502.9404L239.9148 502.0486C245.562 488.971 270.5287 474.7039 287.1734 474.7039 308.8709 474.7039 327.596 482.7291 347.2129 488.971 350.185 489.8625 352.8601 492.2402 354.0489 493.7264 368.6131 514.8295 387.0411 537.1211 402.7938 560.0075 414.6829 558.2242 424.4913 550.1991 424.4913 537.1211 424.4913 520.4767 393.8771 500.5627 393.8771 458.951 393.8771 410.8008 447.3774 381.0781 500.8782 381.0781 541.3005 381.0781 605.7984 398.3173 605.7984 447.954 605.7984 458.6539 600.7456 471.4345 594.5037 477.9734 592.126 474.7039 582.912 473.8124 577.8592 474.4069V473.5151C590.0454 467.5706 595.9899 455.0873 595.9899 442.9009 595.9899 400.9924 534.1671 384.9423 501.4723 384.9423 458.0776 384.9423 409.9272 408.7199 409.9272 456.5733 409.9272 488.0792 434.5968 512.1544 434.5968 531.474 434.5968 546.0378 424.7884 557.0351 412.3052 561.4934 492.853 573.6798 506.228 668.1974 547.5421 668.1974 552.0005 668.1974 554.9729 665.5224 554.9729 658.6863 554.9729 656.3083 554.6755 653.3362 553.784 649.7694L554.0814 649.472C556.7564 653.0389 560.6201 655.1195 563.8898 656.6057ZM561.9161 576.697C561.4951 575.8123 560.9996 574.7323 560.4287 573.4576 559.1721 570.6519 557.5853 567.4167 555.6674 563.7523 553.7497 560.0877 551.5676 556.2513 549.1208 552.2434 546.6739 548.2352 544.0289 544.542 541.1852 541.1639 538.342 537.7856 535.333 535.0088 532.1588 532.8329 530.7457 531.8643 529.3196 531.1114 527.8805 530.574 525.8208 526.098 523.2832 521.8466 520.2669 517.8203 515.6444 511.6501 510.0914 506.5081 503.6071 502.3945 497.1231 498.2808 490.0289 496.2243 482.3252 496.2243 474.7496 496.2243 469.0678 498.2808 465.2802 502.3945 461.4925 506.5081 459.3416 511.6501 458.8282 517.8203 458.3146 523.9908 459.2132 530.689 461.5245 537.9157 463.8356 545.1423 467.3024 551.8406 471.9246 558.0108 476.547 564.1812 482.1004 569.323 488.5846 573.4366 495.0686 577.5503 502.1629 579.6071 509.8666 579.6071 517.5706 579.6071 523.3164 577.5503 527.1041 573.4366 530.892 569.323 533.0426 564.1812 533.5563 558.0108 534.0696 551.8406 533.139 545.1423 530.7636 537.9157L530.7225 537.7912C531.4972 538.3706 532.2733 539.0365 533.0517 539.7897 536.4241 543.0535 539.5983 546.9755 542.5741 551.5563 545.5497 556.1368 548.2942 560.9466 550.8071 565.9852 553.1363 570.6558 555.0676 574.7357 556.6014 578.2255 554.3912 579.1513 552.6408 580.4087 551.3508 581.9981 549.6814 584.0549 549.7458 587.029 551.5432 590.9202 552.0569 591.9205 552.8273 592.5597 553.8546 592.8378 554.8816 593.1159 555.8769 593.0603 556.8398 592.6711 557.803 592.2819 558.5411 591.6427 559.0548 590.7532 559.5681 589.864 559.425 588.7596 558.6693 587.418 556.8582 584.2023 557.7208 583.6703 558.7475 582.5591 559.7742 581.4479 562.407 580.8915 566.644 580.8915 570.7528 580.8915 574.0271 581.1693 576.4666 581.7251 586.6965 584.0561 597.3248 582.461 594.2038 568.7402 593.3693 565.0716 591.6679 560.8746 589.1 556.1495 586.5321 551.4245 583.6751 546.6438 580.5295 541.8077 577.3839 536.9715 574.27 532.1908 571.1882 527.4658 568.1069 522.741 565.6351 518.5437 563.7733 514.8751 561.9115 511.2062 560.9806 508.2602 560.9806 506.0364 560.9806 503.8129 562.4572 502.7012 565.4103 502.7012 568.6206 502.7012 571.8626 504.2854 575.1369 507.454 578.4109 510.6226 581.4921 514.4304 584.3815 518.8774 587.2703 523.3246 589.9346 527.9939 592.3743 532.8856 592.7573 533.6538 593.1292 534.4055 593.49 535.1409 593.9274 536.3561 594.39 537.5781 594.8779 538.8058 596.9324 543.9756 599.2756 549.0618 601.9078 554.0649 604.5398 559.0678 606.9796 563.5426 609.2266 567.4895 611.4736 571.4365 613.3995 574.6326 615.0044 577.0786 616.6094 579.5243 617.4763 580.803 617.6047 580.9141 621.1998 580.9141 624.6023 581.1644 627.8125 581.6645 631.0222 582.1648 633.462 582.8598 635.131 583.7494H635.709C626.2072 568.518 618.5035 555.0097 612.597 543.2253 610.0291 538.111 607.75 533.1359 605.7598 528.2997 603.7696 523.4632 602.3894 519.1554 601.619 515.3754 600.8485 511.5954 600.8485 508.538 601.619 506.2034 602.3894 503.8685 604.3153 502.7012 607.3968 502.7012 610.2218 502.7012 613.1106 503.9796 616.064 506.5367 619.0169 509.0939 621.8739 512.318 624.6343 516.2091 627.395 520.1005 629.9949 524.3528 632.4347 528.9667 634.3603 532.6081 636.1254 536.1284 637.7312 539.5277 639.7155 544.4493 641.9625 549.2951 644.472 554.0649 647.1043 559.0678 649.5437 563.5426 651.7908 567.4895 654.0378 571.4365 655.9637 574.6326 657.5689 577.0786 659.1739 579.5243 660.0404 580.803 660.1689 580.9141 663.764 580.9141 667.1665 581.1644 670.3764 581.6645 673.5866 582.1648 676.0261 582.8598 677.6952 583.7494H678.2732C668.7714 568.518 661.0674 555.0097 655.1614 543.2253 652.5933 538.111 650.3142 533.1359 648.324 528.2997 646.3338 523.4632 644.9536 519.1554 644.1831 515.3754 643.4127 511.5954 643.4127 508.538 644.1831 506.2034 644.9536 503.8685 646.8795 502.7012 649.961 502.7012 652.7857 502.7012 655.6748 503.9796 658.6282 506.5367 661.5811 509.0939 664.4381 512.318 667.1988 516.2091 667.95 517.2684 668.6895 518.3541 669.4172 519.467 672.0318 524.6898 674.663 529.9688 677.31 535.3038 681.0335 542.8083 684.7571 549.9513 688.4807 556.7329 690.1498 560.0684 691.8514 563.1814 693.5845 566.0719 695.3179 568.9627 696.8588 571.4918 698.207 573.66 699.5554 575.8279 700.6465 577.5511 701.4813 578.8295 702.3158 580.1083 702.733 580.803 702.733 580.9141 706.3282 580.9141 709.7309 581.1644 712.9406 581.6645 716.1508 582.1648 718.5903 582.8598 720.2597 583.7494H720.8374C719.168 581.3031 717.499 578.6351 715.8297 575.7443 714.289 573.2986 712.5877 570.4359 710.7259 567.1562 708.8641 563.8762 706.9059 560.4021 704.8517 556.7329 700.6144 548.7284 696.4413 540.6681 692.3327 532.5523 688.2239 524.4364 684.0831 516.6261 679.9102 509.1216 675.7373 501.6172 671.5641 494.6409 667.3912 488.1926 663.2184 481.7443 658.9811 476.102 654.6798 471.2658 650.3783 466.4296 645.9486 462.6496 641.3905 459.9258 636.8323 457.202 632.1779 455.8399 627.427 455.8399 619.9798 455.8399 616.2565 459.0641 616.2565 465.5123 616.2565 469.7371 617.9579 473.2393 621.3603 476.0186 624.763 478.798 629.3208 481.3829 635.0346 483.7731 640.7484 486.1636 647.297 488.7207 654.6798 491.4445 662.0627 494.1683 669.7346 497.6702 677.6952 501.9506 685.656 506.2309 693.5845 511.5677 701.4813 517.9603 709.1289 524.1515 716.2648 531.9332 722.8888 541.3048 725.7974 547.74 729.8323 553.7446 734.9933 559.3178 740.7068 565.4883 747.8011 570.63 756.2755 574.7437 764.75 578.8573 774.4439 580.9141 785.3579 580.9141H789.7876C793.3827 580.9141 796.7854 581.1644 799.9951 581.6645 803.2054 582.1648 805.6449 582.8598 807.3139 583.7494H807.8919C798.3904 568.518 790.6864 555.0097 784.7799 543.2253 782.212 538.111 779.9329 533.1359 777.9427 528.2997 775.9525 523.4632 774.5723 519.1554 773.8019 515.3754 773.0317 511.5954 773.0317 508.538 773.8019 506.2034 774.5723 503.8685 776.4982 502.7012 779.58 502.7012 782.4047 502.7012 785.2935 503.9796 788.2466 506.5367 791.2001 509.0939 794.0889 512.3458 796.9139 516.2924 799.7386 520.2391 802.3706 524.5197 804.8103 529.1337 807.2498 533.7473 809.4325 538.111 811.3586 542.2246H816.944C814.6327 537.6662 812.1611 532.7745 809.5289 527.5491 806.8966 522.324 804.0076 517.4875 800.862 513.0405 797.7161 508.5935 794.2816 504.8969 790.5577 501.9506 786.8344 499.0045 782.7256 497.5313 778.2316 497.5313 772.7105 497.5313 768.6337 498.6989 766.0018 501.0335 763.3695 503.3682 761.7966 506.4812 761.2832 510.3723 761.0715 511.9753 761.0017 513.6681 761.0732 515.4503 759.6777 513.0505 758.3029 510.9131 756.9496 509.038 754.0605 505.0361 751.1394 502.1175 748.1863 500.2829 745.2332 498.4486 741.9589 497.5313 738.364 497.5313 731.5586 497.5313 726.4871 499.5882 723.1484 503.7018 719.8101 507.8154 718.0447 512.9572 717.8522 519.1277 717.7572 522.1681 718.0447 525.3372 718.7134 528.6342 716.737 526.3931 714.7165 524.2802 712.6517 522.2959 706.8098 516.6816 700.8392 511.8177 694.7402 507.704 688.6414 503.5904 682.5421 500.0885 676.4434 497.198 670.3447 494.3072 664.4701 491.7781 658.8207 489.6102 653.1712 487.4423 647.9388 485.4966 643.1238 483.7731 638.3089 482.0502 634.104 480.3267 630.5085 478.6036 626.9134 476.8804 624.0889 474.9902 622.0344 472.9334 619.9798 470.8769 618.9528 468.4031 618.9528 465.5123 618.9528 463.2888 619.5305 461.5656 620.6862 460.3428 621.8419 459.1196 623.3825 458.5085 625.3084 458.5085 628.3902 458.5085 631.5678 459.9814 634.8421 462.9277 638.1164 465.8737 641.4868 469.8763 644.9536 474.9347 648.4204 479.9931 651.9192 485.8021 655.4503 492.3618 657.0374 495.3101 658.6373 498.3316 660.2505 501.4259 656.7109 498.8296 652.8317 497.5313 648.6129 497.5313 643.0918 497.5313 639.015 498.6989 636.3831 501.0335 633.7508 503.3682 632.1779 506.4812 631.6642 510.3723 631.3779 512.5414 631.351 514.8748 631.5837 517.3722 630.6409 515.8894 629.6729 514.4454 628.6791 513.0405 625.5332 508.5935 622.0987 504.8969 618.3748 501.9506 614.6515 499.0045 610.5427 497.5313 606.0487 497.5313 600.5273 497.5313 596.4508 498.6989 593.8186 501.0335 591.1863 503.3682 589.6134 506.4812 589.1 510.3723 588.8375 512.3619 588.7933 514.4896 588.9668 516.7553 587.0991 513.9247 585.1213 511.2689 583.033 508.7883 580.2727 505.5083 577.3516 502.8123 574.27 500.6999 571.1882 498.5878 568.0426 497.5313 564.8326 497.5313 558.9264 497.5313 554.8496 498.6431 552.6026 500.8669 550.3558 503.0904 549.3606 506.0364 549.6174 509.7053 549.8742 513.3742 551.094 517.5711 553.2766 522.2959 555.4596 527.0213 557.9955 531.8016 560.8843 536.6378 563.7733 541.474 566.7265 546.2546 569.7439 550.9797 572.7614 555.7048 575.297 559.9018 577.3516 563.5706 579.4058 567.2392 580.6256 570.1856 581.0111 572.4091 581.396 574.6326 580.3688 575.7443 577.9293 575.7443 575.6182 575.7443 572.633 575.7999 568.9735 575.9113 566.5201 575.9855 564.1676 576.2477 561.9161 576.697ZM510.0593 573.77C506.7207 573.77 503.2542 571.9912 499.659 568.4338 496.0638 564.8482 492.6934 560.429 489.5476 555.1203 486.4017 549.8393 483.641 544.1136 481.2659 537.9157 478.8904 531.7452 477.2534 525.992 476.3546 520.7111 475.4557 515.4024 475.4557 510.9831 476.3546 507.3976 477.2534 503.8398 479.3717 502.0611 482.7104 502.0611 485.2783 502.0611 487.9103 503.0895 490.6069 505.146 493.3032 507.2029 495.9031 509.927 498.407 513.2622 500.9108 516.5974 503.3183 520.433 505.6296 524.7133 507.9407 528.9936 509.9309 533.4129 511.6 537.9157 513.2693 542.4182 514.5851 546.8374 515.5483 551.1178 516.5113 555.4259 517.0246 559.2336 517.0893 562.5692 517.153 565.9044 516.6077 568.6282 515.452 570.685 514.2963 572.7419 512.4988 573.77 510.0593 573.77ZM785.9072 575.0773H782.854C776.6909 575.0773 770.8487 573.2986 765.3274 569.7408 759.8064 566.1831 754.831 561.7083 750.4013 556.3162 745.9716 550.9242 742.2477 545.1151 739.2305 538.8894 736.213 532.6634 734.1588 526.8543 733.0674 521.4623 731.9758 516.0702 731.9758 511.5954 733.0674 508.0377 734.1588 504.4799 736.6303 502.7012 740.4823 502.7012 743.0505 502.7012 745.49 503.7296 747.8011 505.7864 750.1124 507.8429 752.3595 510.567 754.5421 513.9578 756.7248 517.3486 758.8434 521.1845 760.8977 525.4648 762.9523 529.7451 764.9425 534.0807 766.8686 538.4724 767.0982 538.9957 767.327 539.5167 767.5557 540.0354 768.9249 543.3968 770.4167 546.7229 772.0313 550.0137 772.2045 550.3927 772.3774 550.7702 772.5501 551.1464 774.3444 555.0574 776.1685 558.4774 778.0224 561.4072 779.1962 563.5576 780.3255 565.5849 781.4095 567.4895 783.0879 570.4376 784.5871 572.9666 785.9072 575.0773ZM647.2647 603.4275C647.2647 600.8703 646.3018 598.758 644.3759 597.0903 642.4498 595.4227 640.0103 594.589 637.0571 594.589 634.3608 594.589 632.0174 595.4227 630.0272 597.0903 628.037 598.758 627.0418 600.8148 627.0418 603.2608 627.0418 605.7065 628.037 607.7633 630.0272 609.431 632.0174 611.0989 634.3608 611.9325 637.0571 611.9325 639.8816 611.9325 642.2893 611.1264 644.2795 609.5143 646.2697 607.9022 647.2647 605.8735 647.2647 603.4275" fill="#1b75ba"/>
</g>
</svg>